solid OpenSCAD_Model
  facet normal 0 -0.0652086 0.997872
    outer loop
      vertex 0 3 21.3
      vertex 8.35384 3.22189 21.3145
      vertex 0 3.22189 21.3145
    endloop
  endfacet
  facet normal 0 -0.0652086 0.997872
    outer loop
      vertex 8.35384 3.22189 21.3145
      vertex 0 3 21.3
      vertex 8.57574 3 21.3
    endloop
  endfacet
  facet normal 0 -0.99786 0.0653848
    outer loop
      vertex 0 4.68546 22.7781
      vertex 6.87574 4.7 23
      vertex 0 4.7 23
    endloop
  endfacet
  facet normal 0 -0.99786 0.0653848
    outer loop
      vertex 6.87574 4.7 23
      vertex 0 4.68546 22.7781
      vertex 6.89029 4.68546 22.7781
    endloop
  endfacet
  facet normal 0 -0.751863 0.659319
    outer loop
      vertex 0 4.20208 21.7979
      vertex 7.22704 4.3487 21.9651
      vertex 0 4.3487 21.9651
    endloop
  endfacet
  facet normal 0 -0.751863 0.659319
    outer loop
      vertex 7.22704 4.3487 21.9651
      vertex 0 4.20208 21.7979
      vertex 7.37366 4.20208 21.7979
    endloop
  endfacet
  facet normal -0 -0.751837 -0.659349
    outer loop
      vertex 7.22704 4.3487 24.0349
      vertex 0 4.20391 24.2
      vertex 0 4.3487 24.0349
    endloop
  endfacet
  facet normal 0 -0.751837 -0.659349
    outer loop
      vertex 0 4.20391 24.2
      vertex 7.22704 4.3487 24.0349
      vertex 7.37183 4.20391 24.2
    endloop
  endfacet
  facet normal -0 -0.946943 -0.321403
    outer loop
      vertex 6.93367 4.64207 23.44
      vertex 0 4.57059 23.6506
      vertex 0 4.64207 23.44
    endloop
  endfacet
  facet normal 0 -0.946943 -0.321403
    outer loop
      vertex 0 4.57059 23.6506
      vertex 6.93367 4.64207 23.44
      vertex 7.00515 4.57059 23.6506
    endloop
  endfacet
  facet normal 0 -0.442459 0.896789
    outer loop
      vertex 0 3.65056 21.4294
      vertex 7.72574 3.85 21.5278
      vertex 0 3.85 21.5278
    endloop
  endfacet
  facet normal 0 -0.442459 0.896789
    outer loop
      vertex 7.72574 3.85 21.5278
      vertex 0 3.65056 21.4294
      vertex 7.92518 3.65056 21.4294
    endloop
  endfacet
  facet normal 0 -0.195165 0.98077
    outer loop
      vertex 0 3.22189 21.3145
      vertex 8.13575 3.43999 21.3579
      vertex 0 3.43999 21.3579
    endloop
  endfacet
  facet normal 0 -0.195165 0.98077
    outer loop
      vertex 8.13575 3.43999 21.3579
      vertex 0 3.22189 21.3145
      vertex 8.35384 3.22189 21.3145
    endloop
  endfacet
  facet normal 0 -0.555447 0.831552
    outer loop
      vertex 0 3.85 21.5278
      vertex 7.54085 4.03489 21.6513
      vertex 0 4.03489 21.6513
    endloop
  endfacet
  facet normal 0 -0.555447 0.831552
    outer loop
      vertex 7.54085 4.03489 21.6513
      vertex 0 3.85 21.5278
      vertex 7.72574 3.85 21.5278
    endloop
  endfacet
  facet normal 0 -0.946943 0.321403
    outer loop
      vertex 0 4.57059 22.3494
      vertex 6.93367 4.64207 22.56
      vertex 0 4.64207 22.56
    endloop
  endfacet
  facet normal 0 -0.946943 0.321403
    outer loop
      vertex 6.93367 4.64207 22.56
      vertex 0 4.57059 22.3494
      vertex 7.00515 4.57059 22.3494
    endloop
  endfacet
  facet normal 0 -0.980779 0.195122
    outer loop
      vertex 0 4.64207 22.56
      vertex 6.89029 4.68546 22.7781
      vertex 0 4.68546 22.7781
    endloop
  endfacet
  facet normal 0 -0.980779 0.195122
    outer loop
      vertex 6.89029 4.68546 22.7781
      vertex 0 4.64207 22.56
      vertex 6.93367 4.64207 22.56
    endloop
  endfacet
  facet normal 0 -0.896843 0.442349
    outer loop
      vertex 0 4.47224 22.15
      vertex 7.00515 4.57059 22.3494
      vertex 0 4.57059 22.3494
    endloop
  endfacet
  facet normal 0 -0.896843 0.442349
    outer loop
      vertex 7.00515 4.57059 22.3494
      vertex 0 4.47224 22.15
      vertex 7.1035 4.47224 22.15
    endloop
  endfacet
  facet normal -0 -0.980779 -0.195122
    outer loop
      vertex 6.89029 4.68546 23.2219
      vertex 0 4.64207 23.44
      vertex 0 4.68546 23.2219
    endloop
  endfacet
  facet normal 0 -0.980779 -0.195122
    outer loop
      vertex 0 4.64207 23.44
      vertex 6.89029 4.68546 23.2219
      vertex 6.93367 4.64207 23.44
    endloop
  endfacet
  facet normal 0 0.195165 0.98077
    outer loop
      vertex 0 2.56001 21.3579
      vertex 8.79763 2.77811 21.3145
      vertex 0 2.77811 21.3145
    endloop
  endfacet
  facet normal 0 0.195165 0.98077
    outer loop
      vertex 8.79763 2.77811 21.3145
      vertex 0 2.56001 21.3579
      vertex 9.01573 2.56001 21.3579
    endloop
  endfacet
  facet normal 0 0.751837 -0.659349
    outer loop
      vertex 0 1.6513 24.0349
      vertex 9.77964 1.79609 24.2
      vertex 9.92443 1.6513 24.0349
    endloop
  endfacet
  facet normal 0 0.751837 -0.659349
    outer loop
      vertex 9.77964 1.79609 24.2
      vertex 0 1.6513 24.0349
      vertex 0 1.79609 24.2
    endloop
  endfacet
  facet normal 0 0.946943 -0.321403
    outer loop
      vertex 0 1.35793 23.44
      vertex 10.1463 1.42941 23.6506
      vertex 10.2178 1.35793 23.44
    endloop
  endfacet
  facet normal 0 0.946943 -0.321403
    outer loop
      vertex 10.1463 1.42941 23.6506
      vertex 0 1.35793 23.44
      vertex 0 1.42941 23.6506
    endloop
  endfacet
  facet normal 0 -0.321525 0.946901
    outer loop
      vertex 0 3.43999 21.3579
      vertex 7.92518 3.65056 21.4294
      vertex 0 3.65056 21.4294
    endloop
  endfacet
  facet normal 0 -0.321525 0.946901
    outer loop
      vertex 7.92518 3.65056 21.4294
      vertex 0 3.43999 21.3579
      vertex 8.13575 3.43999 21.3579
    endloop
  endfacet
  facet normal 0 -0.659291 0.751888
    outer loop
      vertex 0 4.03489 21.6513
      vertex 7.37366 4.20208 21.7979
      vertex 0 4.20208 21.7979
    endloop
  endfacet
  facet normal 0 -0.659291 0.751888
    outer loop
      vertex 7.37366 4.20208 21.7979
      vertex 0 4.03489 21.6513
      vertex 7.54085 4.03489 21.6513
    endloop
  endfacet
  facet normal 0 -0.831483 0.555551
    outer loop
      vertex 0 4.3487 21.9651
      vertex 7.1035 4.47224 22.15
      vertex 0 4.47224 22.15
    endloop
  endfacet
  facet normal 0 -0.831483 0.555551
    outer loop
      vertex 7.1035 4.47224 22.15
      vertex 0 4.3487 21.9651
      vertex 7.22704 4.3487 21.9651
    endloop
  endfacet
  facet normal -0 -0.896843 -0.442349
    outer loop
      vertex 7.00515 4.57059 23.6506
      vertex 0 4.47224 23.85
      vertex 0 4.57059 23.6506
    endloop
  endfacet
  facet normal 0 -0.896843 -0.442349
    outer loop
      vertex 0 4.47224 23.85
      vertex 7.00515 4.57059 23.6506
      vertex 7.1035 4.47224 23.85
    endloop
  endfacet
  facet normal -0 -0.831483 -0.555551
    outer loop
      vertex 7.1035 4.47224 23.85
      vertex 0 4.3487 24.0349
      vertex 0 4.47224 23.85
    endloop
  endfacet
  facet normal 0 -0.831483 -0.555551
    outer loop
      vertex 0 4.3487 24.0349
      vertex 7.1035 4.47224 23.85
      vertex 7.22704 4.3487 24.0349
    endloop
  endfacet
  facet normal -0 -0.99786 -0.0653848
    outer loop
      vertex 6.87574 4.7 23
      vertex 0 4.68546 23.2219
      vertex 0 4.7 23
    endloop
  endfacet
  facet normal 0 -0.99786 -0.0653848
    outer loop
      vertex 0 4.68546 23.2219
      vertex 6.87574 4.7 23
      vertex 6.89029 4.68546 23.2219
    endloop
  endfacet
  facet normal 0 0.0652086 0.997872
    outer loop
      vertex 0 2.77811 21.3145
      vertex 8.57574 3 21.3
      vertex 0 3 21.3
    endloop
  endfacet
  facet normal 0 0.0652086 0.997872
    outer loop
      vertex 8.57574 3 21.3
      vertex 0 2.77811 21.3145
      vertex 8.79763 2.77811 21.3145
    endloop
  endfacet
  facet normal 0 0.99786 0.0653848
    outer loop
      vertex 10.2612 1.31454 22.7781
      vertex 0 1.3 23
      vertex 10.2757 1.3 23
    endloop
  endfacet
  facet normal 0 0.99786 0.0653848
    outer loop
      vertex 0 1.3 23
      vertex 10.2612 1.31454 22.7781
      vertex 0 1.31454 22.7781
    endloop
  endfacet
  facet normal 0 0.946943 0.321403
    outer loop
      vertex 10.1463 1.42941 22.3494
      vertex 0 1.35793 22.56
      vertex 10.2178 1.35793 22.56
    endloop
  endfacet
  facet normal 0 0.946943 0.321403
    outer loop
      vertex 0 1.35793 22.56
      vertex 10.1463 1.42941 22.3494
      vertex 0 1.42941 22.3494
    endloop
  endfacet
  facet normal 0 0.751863 0.659319
    outer loop
      vertex 9.77781 1.79792 21.7979
      vertex 0 1.6513 21.9651
      vertex 9.92443 1.6513 21.9651
    endloop
  endfacet
  facet normal 0 0.751863 0.659319
    outer loop
      vertex 0 1.6513 21.9651
      vertex 9.77781 1.79792 21.7979
      vertex 0 1.79792 21.7979
    endloop
  endfacet
  facet normal 0 0.896843 0.442349
    outer loop
      vertex 10.048 1.52776 22.15
      vertex 0 1.42941 22.3494
      vertex 10.1463 1.42941 22.3494
    endloop
  endfacet
  facet normal 0 0.896843 0.442349
    outer loop
      vertex 0 1.42941 22.3494
      vertex 10.048 1.52776 22.15
      vertex 0 1.52776 22.15
    endloop
  endfacet
  facet normal 0 0.555447 0.831552
    outer loop
      vertex 0 1.96511 21.6513
      vertex 9.42573 2.15 21.5278
      vertex 0 2.15 21.5278
    endloop
  endfacet
  facet normal 0 0.555447 0.831552
    outer loop
      vertex 9.42573 2.15 21.5278
      vertex 0 1.96511 21.6513
      vertex 9.61063 1.96511 21.6513
    endloop
  endfacet
  facet normal 0 0.321525 0.946901
    outer loop
      vertex 0 2.34944 21.4294
      vertex 9.01573 2.56001 21.3579
      vertex 0 2.56001 21.3579
    endloop
  endfacet
  facet normal 0 0.321525 0.946901
    outer loop
      vertex 9.01573 2.56001 21.3579
      vertex 0 2.34944 21.4294
      vertex 9.2263 2.34944 21.4294
    endloop
  endfacet
  facet normal 0 0.831483 -0.555551
    outer loop
      vertex 0 1.52776 23.85
      vertex 9.92443 1.6513 24.0349
      vertex 10.048 1.52776 23.85
    endloop
  endfacet
  facet normal 0 0.831483 -0.555551
    outer loop
      vertex 9.92443 1.6513 24.0349
      vertex 0 1.52776 23.85
      vertex 0 1.6513 24.0349
    endloop
  endfacet
  facet normal 0 0.980779 -0.195122
    outer loop
      vertex 0 1.31454 23.2219
      vertex 10.2178 1.35793 23.44
      vertex 10.2612 1.31454 23.2219
    endloop
  endfacet
  facet normal 0 0.980779 -0.195122
    outer loop
      vertex 10.2178 1.35793 23.44
      vertex 0 1.31454 23.2219
      vertex 0 1.35793 23.44
    endloop
  endfacet
  facet normal 0 0.980779 0.195122
    outer loop
      vertex 10.2178 1.35793 22.56
      vertex 0 1.31454 22.7781
      vertex 10.2612 1.31454 22.7781
    endloop
  endfacet
  facet normal 0 0.980779 0.195122
    outer loop
      vertex 0 1.31454 22.7781
      vertex 10.2178 1.35793 22.56
      vertex 0 1.35793 22.56
    endloop
  endfacet
  facet normal 0 0.659291 0.751888
    outer loop
      vertex 0 1.79792 21.7979
      vertex 9.61063 1.96511 21.6513
      vertex 0 1.96511 21.6513
    endloop
  endfacet
  facet normal 0 0.659291 0.751888
    outer loop
      vertex 9.61063 1.96511 21.6513
      vertex 0 1.79792 21.7979
      vertex 9.77781 1.79792 21.7979
    endloop
  endfacet
  facet normal 0 0.831483 0.555551
    outer loop
      vertex 9.92443 1.6513 21.9651
      vertex 0 1.52776 22.15
      vertex 10.048 1.52776 22.15
    endloop
  endfacet
  facet normal 0 0.831483 0.555551
    outer loop
      vertex 0 1.52776 22.15
      vertex 9.92443 1.6513 21.9651
      vertex 0 1.6513 21.9651
    endloop
  endfacet
  facet normal 0 0.442459 0.896789
    outer loop
      vertex 0 2.15 21.5278
      vertex 9.2263 2.34944 21.4294
      vertex 0 2.34944 21.4294
    endloop
  endfacet
  facet normal 0 0.442459 0.896789
    outer loop
      vertex 9.2263 2.34944 21.4294
      vertex 0 2.15 21.5278
      vertex 9.42573 2.15 21.5278
    endloop
  endfacet
  facet normal 0 0.896843 -0.442349
    outer loop
      vertex 0 1.42941 23.6506
      vertex 10.048 1.52776 23.85
      vertex 10.1463 1.42941 23.6506
    endloop
  endfacet
  facet normal 0 0.896843 -0.442349
    outer loop
      vertex 10.048 1.52776 23.85
      vertex 0 1.42941 23.6506
      vertex 0 1.52776 23.85
    endloop
  endfacet
  facet normal 0 0.99786 -0.0653848
    outer loop
      vertex 0 1.3 23
      vertex 10.2612 1.31454 23.2219
      vertex 10.2757 1.3 23
    endloop
  endfacet
  facet normal 0 0.99786 -0.0653848
    outer loop
      vertex 10.2612 1.31454 23.2219
      vertex 0 1.3 23
      vertex 0 1.31454 23.2219
    endloop
  endfacet
  facet normal 0 0 -1
    outer loop
      vertex 0 1.79609 24.2
      vertex 7.37183 4.20391 24.2
      vertex 9.77964 1.79609 24.2
    endloop
  endfacet
  facet normal -0 0 -1
    outer loop
      vertex 7.37183 4.20391 24.2
      vertex 0 1.79609 24.2
      vertex 0 4.20391 24.2
    endloop
  endfacet
  facet normal 0 -0.831483 0.555551
    outer loop
      vertex 58.8736 4.3487 21.9651
      vertex 47.8965 4.47224 22.15
      vertex 47.773 4.3487 21.9651
    endloop
  endfacet
  facet normal 0 -0.831483 0.555551
    outer loop
      vertex 47.8965 4.47224 22.15
      vertex 58.8736 4.3487 21.9651
      vertex 58.9837 4.47224 22.15
    endloop
  endfacet
  facet normal 0 0.946943 -0.321403
    outer loop
      vertex 56.2096 1.35793 23.44
      vertex 44.8537 1.42941 23.6506
      vertex 56.2732 1.42941 23.6506
    endloop
  endfacet
  facet normal 0 0.946943 -0.321403
    outer loop
      vertex 44.8537 1.42941 23.6506
      vertex 56.2096 1.35793 23.44
      vertex 44.7822 1.35793 23.44
    endloop
  endfacet
  facet normal 0 -0.946943 -0.321403
    outer loop
      vertex 48.0663 4.64207 23.44
      vertex 59.0713 4.57059 23.6506
      vertex 47.9949 4.57059 23.6506
    endloop
  endfacet
  facet normal 0 -0.946943 -0.321403
    outer loop
      vertex 59.0713 4.57059 23.6506
      vertex 48.0663 4.64207 23.44
      vertex 59.1349 4.64207 23.44
    endloop
  endfacet
  facet normal 0 0.896843 -0.442349
    outer loop
      vertex 56.2732 1.42941 23.6506
      vertex 44.952 1.52776 23.85
      vertex 56.3609 1.52776 23.85
    endloop
  endfacet
  facet normal 0 0.896843 -0.442349
    outer loop
      vertex 44.952 1.52776 23.85
      vertex 56.2732 1.42941 23.6506
      vertex 44.8537 1.42941 23.6506
    endloop
  endfacet
  facet normal 0 -0.442459 0.896789
    outer loop
      vertex 47.2743 3.85 21.5278
      vertex 58.2517 3.65056 21.4294
      vertex 58.4294 3.85 21.5278
    endloop
  endfacet
  facet normal 0 -0.442459 0.896789
    outer loop
      vertex 58.2517 3.65056 21.4294
      vertex 47.2743 3.85 21.5278
      vertex 47.0748 3.65056 21.4294
    endloop
  endfacet
  facet normal 0 -0.195165 0.98077
    outer loop
      vertex 46.8643 3.43999 21.3579
      vertex 57.8699 3.22189 21.3145
      vertex 58.0642 3.43999 21.3579
    endloop
  endfacet
  facet normal 0 -0.195165 0.98077
    outer loop
      vertex 57.8699 3.22189 21.3145
      vertex 46.8643 3.43999 21.3579
      vertex 46.6462 3.22189 21.3145
    endloop
  endfacet
  facet normal 0 -0.555447 0.831552
    outer loop
      vertex 47.4592 4.03489 21.6513
      vertex 58.4294 3.85 21.5278
      vertex 58.5941 4.03489 21.6513
    endloop
  endfacet
  facet normal 0 -0.555447 0.831552
    outer loop
      vertex 58.4294 3.85 21.5278
      vertex 47.4592 4.03489 21.6513
      vertex 47.2743 3.85 21.5278
    endloop
  endfacet
  facet normal 0 -0.946943 0.321403
    outer loop
      vertex 59.0713 4.57059 22.3494
      vertex 48.0663 4.64207 22.56
      vertex 47.9949 4.57059 22.3494
    endloop
  endfacet
  facet normal 0 -0.946943 0.321403
    outer loop
      vertex 48.0663 4.64207 22.56
      vertex 59.0713 4.57059 22.3494
      vertex 59.1349 4.64207 22.56
    endloop
  endfacet
  facet normal 0 -0.99786 0.0653848
    outer loop
      vertex 59.1736 4.68546 22.7781
      vertex 48.1243 4.7 23
      vertex 48.1097 4.68546 22.7781
    endloop
  endfacet
  facet normal 0 -0.99786 0.0653848
    outer loop
      vertex 48.1243 4.7 23
      vertex 59.1736 4.68546 22.7781
      vertex 59.1865 4.7 23
    endloop
  endfacet
  facet normal 0 -0.980779 -0.195122
    outer loop
      vertex 48.1097 4.68546 23.2219
      vertex 59.1349 4.64207 23.44
      vertex 48.0663 4.64207 23.44
    endloop
  endfacet
  facet normal 0 -0.980779 -0.195122
    outer loop
      vertex 59.1349 4.64207 23.44
      vertex 48.1097 4.68546 23.2219
      vertex 59.1736 4.68546 23.2219
    endloop
  endfacet
  facet normal 0 -0.751837 -0.659349
    outer loop
      vertex 47.773 4.3487 24.0349
      vertex 58.7446 4.20391 24.2
      vertex 47.6282 4.20391 24.2
    endloop
  endfacet
  facet normal 0 -0.751837 -0.659349
    outer loop
      vertex 58.7446 4.20391 24.2
      vertex 47.773 4.3487 24.0349
      vertex 58.8736 4.3487 24.0349
    endloop
  endfacet
  facet normal 0 -0.0652086 0.997872
    outer loop
      vertex 46.6462 3.22189 21.3145
      vertex 57.6723 3 21.3
      vertex 57.8699 3.22189 21.3145
    endloop
  endfacet
  facet normal 0 -0.0652086 0.997872
    outer loop
      vertex 57.6723 3 21.3
      vertex 46.6462 3.22189 21.3145
      vertex 46.4243 3 21.3
    endloop
  endfacet
  facet normal -0 0.946943 0.321403
    outer loop
      vertex 44.8537 1.42941 22.3494
      vertex 56.2096 1.35793 22.56
      vertex 56.2732 1.42941 22.3494
    endloop
  endfacet
  facet normal 0 0.946943 0.321403
    outer loop
      vertex 56.2096 1.35793 22.56
      vertex 44.8537 1.42941 22.3494
      vertex 44.7822 1.35793 22.56
    endloop
  endfacet
  facet normal -0 0.555447 0.831552
    outer loop
      vertex 45.5743 2.15 21.5278
      vertex 56.7504 1.96511 21.6513
      vertex 56.9151 2.15 21.5278
    endloop
  endfacet
  facet normal 0 0.555447 0.831552
    outer loop
      vertex 56.7504 1.96511 21.6513
      vertex 45.5743 2.15 21.5278
      vertex 45.3894 1.96511 21.6513
    endloop
  endfacet
  facet normal 0 0.980779 -0.195122
    outer loop
      vertex 56.1709 1.31454 23.2219
      vertex 44.7822 1.35793 23.44
      vertex 56.2096 1.35793 23.44
    endloop
  endfacet
  facet normal 0 0.980779 -0.195122
    outer loop
      vertex 44.7822 1.35793 23.44
      vertex 56.1709 1.31454 23.2219
      vertex 44.7388 1.31454 23.2219
    endloop
  endfacet
  facet normal 0 0.751837 -0.659349
    outer loop
      vertex 56.4709 1.6513 24.0349
      vertex 45.2204 1.79609 24.2
      vertex 56.5999 1.79609 24.2
    endloop
  endfacet
  facet normal 0 0.751837 -0.659349
    outer loop
      vertex 45.2204 1.79609 24.2
      vertex 56.4709 1.6513 24.0349
      vertex 45.0756 1.6513 24.0349
    endloop
  endfacet
  facet normal 0 -0.321525 0.946901
    outer loop
      vertex 47.0748 3.65056 21.4294
      vertex 58.0642 3.43999 21.3579
      vertex 58.2517 3.65056 21.4294
    endloop
  endfacet
  facet normal 0 -0.321525 0.946901
    outer loop
      vertex 58.0642 3.43999 21.3579
      vertex 47.0748 3.65056 21.4294
      vertex 46.8643 3.43999 21.3579
    endloop
  endfacet
  facet normal 0 -0.659291 0.751888
    outer loop
      vertex 47.6263 4.20208 21.7979
      vertex 58.5941 4.03489 21.6513
      vertex 58.743 4.20208 21.7979
    endloop
  endfacet
  facet normal 0 -0.659291 0.751888
    outer loop
      vertex 58.5941 4.03489 21.6513
      vertex 47.6263 4.20208 21.7979
      vertex 47.4592 4.03489 21.6513
    endloop
  endfacet
  facet normal 0 -0.751863 0.659319
    outer loop
      vertex 58.743 4.20208 21.7979
      vertex 47.773 4.3487 21.9651
      vertex 47.6263 4.20208 21.7979
    endloop
  endfacet
  facet normal 0 -0.751863 0.659319
    outer loop
      vertex 47.773 4.3487 21.9651
      vertex 58.743 4.20208 21.7979
      vertex 58.8736 4.3487 21.9651
    endloop
  endfacet
  facet normal 0 -0.896843 0.442349
    outer loop
      vertex 58.9837 4.47224 22.15
      vertex 47.9949 4.57059 22.3494
      vertex 47.8965 4.47224 22.15
    endloop
  endfacet
  facet normal 0 -0.896843 0.442349
    outer loop
      vertex 47.9949 4.57059 22.3494
      vertex 58.9837 4.47224 22.15
      vertex 59.0713 4.57059 22.3494
    endloop
  endfacet
  facet normal 0 -0.980779 0.195122
    outer loop
      vertex 59.1349 4.64207 22.56
      vertex 48.1097 4.68546 22.7781
      vertex 48.0663 4.64207 22.56
    endloop
  endfacet
  facet normal 0 -0.980779 0.195122
    outer loop
      vertex 48.1097 4.68546 22.7781
      vertex 59.1349 4.64207 22.56
      vertex 59.1736 4.68546 22.7781
    endloop
  endfacet
  facet normal 0 -0.99786 -0.0653848
    outer loop
      vertex 48.1243 4.7 23
      vertex 59.1736 4.68546 23.2219
      vertex 48.1097 4.68546 23.2219
    endloop
  endfacet
  facet normal 0 -0.99786 -0.0653848
    outer loop
      vertex 59.1736 4.68546 23.2219
      vertex 48.1243 4.7 23
      vertex 59.1865 4.7 23
    endloop
  endfacet
  facet normal 0 -0.831483 -0.555551
    outer loop
      vertex 47.8965 4.47224 23.85
      vertex 58.8736 4.3487 24.0349
      vertex 47.773 4.3487 24.0349
    endloop
  endfacet
  facet normal 0 -0.831483 -0.555551
    outer loop
      vertex 58.8736 4.3487 24.0349
      vertex 47.8965 4.47224 23.85
      vertex 58.9837 4.47224 23.85
    endloop
  endfacet
  facet normal 0 -0.896843 -0.442349
    outer loop
      vertex 47.9949 4.57059 23.6506
      vertex 58.9837 4.47224 23.85
      vertex 47.8965 4.47224 23.85
    endloop
  endfacet
  facet normal 0 -0.896843 -0.442349
    outer loop
      vertex 58.9837 4.47224 23.85
      vertex 47.9949 4.57059 23.6506
      vertex 59.0713 4.57059 23.6506
    endloop
  endfacet
  facet normal -0 0.195165 0.98077
    outer loop
      vertex 46.2024 2.77811 21.3145
      vertex 57.2803 2.56001 21.3579
      vertex 57.4746 2.77811 21.3145
    endloop
  endfacet
  facet normal 0 0.195165 0.98077
    outer loop
      vertex 57.2803 2.56001 21.3579
      vertex 46.2024 2.77811 21.3145
      vertex 45.9843 2.56001 21.3579
    endloop
  endfacet
  facet normal -0 0.99786 0.0653848
    outer loop
      vertex 44.7388 1.31454 22.7781
      vertex 56.158 1.3 23
      vertex 56.1709 1.31454 22.7781
    endloop
  endfacet
  facet normal 0 0.99786 0.0653848
    outer loop
      vertex 56.158 1.3 23
      vertex 44.7388 1.31454 22.7781
      vertex 44.7243 1.3 23
    endloop
  endfacet
  facet normal -0 0.980779 0.195122
    outer loop
      vertex 44.7822 1.35793 22.56
      vertex 56.1709 1.31454 22.7781
      vertex 56.2096 1.35793 22.56
    endloop
  endfacet
  facet normal 0 0.980779 0.195122
    outer loop
      vertex 56.1709 1.31454 22.7781
      vertex 44.7822 1.35793 22.56
      vertex 44.7388 1.31454 22.7781
    endloop
  endfacet
  facet normal -0 0.751863 0.659319
    outer loop
      vertex 45.2222 1.79792 21.7979
      vertex 56.4709 1.6513 21.9651
      vertex 56.6015 1.79792 21.7979
    endloop
  endfacet
  facet normal 0 0.751863 0.659319
    outer loop
      vertex 56.4709 1.6513 21.9651
      vertex 45.2222 1.79792 21.7979
      vertex 45.0756 1.6513 21.9651
    endloop
  endfacet
  facet normal -0 0.896843 0.442349
    outer loop
      vertex 44.952 1.52776 22.15
      vertex 56.2732 1.42941 22.3494
      vertex 56.3609 1.52776 22.15
    endloop
  endfacet
  facet normal 0 0.896843 0.442349
    outer loop
      vertex 56.2732 1.42941 22.3494
      vertex 44.952 1.52776 22.15
      vertex 44.8537 1.42941 22.3494
    endloop
  endfacet
  facet normal -0 0.321525 0.946901
    outer loop
      vertex 45.9843 2.56001 21.3579
      vertex 57.0928 2.34944 21.4294
      vertex 57.2803 2.56001 21.3579
    endloop
  endfacet
  facet normal 0 0.321525 0.946901
    outer loop
      vertex 57.0928 2.34944 21.4294
      vertex 45.9843 2.56001 21.3579
      vertex 45.7737 2.34944 21.4294
    endloop
  endfacet
  facet normal 0 0.99786 -0.0653848
    outer loop
      vertex 56.158 1.3 23
      vertex 44.7388 1.31454 23.2219
      vertex 56.1709 1.31454 23.2219
    endloop
  endfacet
  facet normal 0 0.99786 -0.0653848
    outer loop
      vertex 44.7388 1.31454 23.2219
      vertex 56.158 1.3 23
      vertex 44.7243 1.3 23
    endloop
  endfacet
  facet normal 0 0.831483 -0.555551
    outer loop
      vertex 56.3609 1.52776 23.85
      vertex 45.0756 1.6513 24.0349
      vertex 56.4709 1.6513 24.0349
    endloop
  endfacet
  facet normal 0 0.831483 -0.555551
    outer loop
      vertex 45.0756 1.6513 24.0349
      vertex 56.3609 1.52776 23.85
      vertex 44.952 1.52776 23.85
    endloop
  endfacet
  facet normal -0 0.0652086 0.997872
    outer loop
      vertex 46.4243 3 21.3
      vertex 57.4746 2.77811 21.3145
      vertex 57.6723 3 21.3
    endloop
  endfacet
  facet normal 0 0.0652086 0.997872
    outer loop
      vertex 57.4746 2.77811 21.3145
      vertex 46.4243 3 21.3
      vertex 46.2024 2.77811 21.3145
    endloop
  endfacet
  facet normal -0 0.659291 0.751888
    outer loop
      vertex 45.3894 1.96511 21.6513
      vertex 56.6015 1.79792 21.7979
      vertex 56.7504 1.96511 21.6513
    endloop
  endfacet
  facet normal 0 0.659291 0.751888
    outer loop
      vertex 56.6015 1.79792 21.7979
      vertex 45.3894 1.96511 21.6513
      vertex 45.2222 1.79792 21.7979
    endloop
  endfacet
  facet normal -0 0.831483 0.555551
    outer loop
      vertex 45.0756 1.6513 21.9651
      vertex 56.3609 1.52776 22.15
      vertex 56.4709 1.6513 21.9651
    endloop
  endfacet
  facet normal 0 0.831483 0.555551
    outer loop
      vertex 56.3609 1.52776 22.15
      vertex 45.0756 1.6513 21.9651
      vertex 44.952 1.52776 22.15
    endloop
  endfacet
  facet normal -0 0.442459 0.896789
    outer loop
      vertex 45.7737 2.34944 21.4294
      vertex 56.9151 2.15 21.5278
      vertex 57.0928 2.34944 21.4294
    endloop
  endfacet
  facet normal 0 0.442459 0.896789
    outer loop
      vertex 56.9151 2.15 21.5278
      vertex 45.7737 2.34944 21.4294
      vertex 45.5743 2.15 21.5278
    endloop
  endfacet
  facet normal 0 0 -1
    outer loop
      vertex 56.5999 1.79609 24.2
      vertex 47.6282 4.20391 24.2
      vertex 58.7446 4.20391 24.2
    endloop
  endfacet
  facet normal 0 -0 -1
    outer loop
      vertex 47.6282 4.20391 24.2
      vertex 56.5999 1.79609 24.2
      vertex 45.2204 1.79609 24.2
    endloop
  endfacet
  facet normal 0 0 1
    outer loop
      vertex 113.459 52.8791 46
      vertex 113.459 51.7043 46
      vertex 113.497 52.2917 46
    endloop
  endfacet
  facet normal 0 0 1
    outer loop
      vertex 113.344 53.4564 46
      vertex 113.459 51.7043 46
      vertex 113.459 52.8791 46
    endloop
  endfacet
  facet normal 0 0 1
    outer loop
      vertex 113.344 53.4564 46
      vertex 113.344 51.127 46
      vertex 113.459 51.7043 46
    endloop
  endfacet
  facet normal 0 0 1
    outer loop
      vertex 113.155 54.0138 46
      vertex 113.344 51.127 46
      vertex 113.344 53.4564 46
    endloop
  endfacet
  facet normal 0 0 1
    outer loop
      vertex 113.155 54.0138 46
      vertex 113.155 50.5696 46
      vertex 113.344 51.127 46
    endloop
  endfacet
  facet normal 0 0 1
    outer loop
      vertex 112.895 54.5417 46
      vertex 113.155 50.5696 46
      vertex 113.155 54.0138 46
    endloop
  endfacet
  facet normal 0 0 1
    outer loop
      vertex 112.895 54.5417 46
      vertex 112.895 50.0417 46
      vertex 113.155 50.5696 46
    endloop
  endfacet
  facet normal 0 0 1
    outer loop
      vertex 112.568 55.0311 46
      vertex 112.895 50.0417 46
      vertex 112.895 54.5417 46
    endloop
  endfacet
  facet normal 0 0 1
    outer loop
      vertex 112.568 55.0311 46
      vertex 112.568 49.5523 46
      vertex 112.895 50.0417 46
    endloop
  endfacet
  facet normal 0 0 1
    outer loop
      vertex 112.179 55.4737 46
      vertex 112.568 49.5523 46
      vertex 112.568 55.0311 46
    endloop
  endfacet
  facet normal 0 0 1
    outer loop
      vertex 112.179 55.4737 46
      vertex 112.179 49.1097 46
      vertex 112.568 49.5523 46
    endloop
  endfacet
  facet normal 0 0 1
    outer loop
      vertex 111.737 55.8618 46
      vertex 112.179 49.1097 46
      vertex 112.179 55.4737 46
    endloop
  endfacet
  facet normal 0 0 1
    outer loop
      vertex 111.737 55.8618 46
      vertex 111.737 48.7216 46
      vertex 112.179 49.1097 46
    endloop
  endfacet
  facet normal 0 0 1
    outer loop
      vertex 111.247 56.1888 46
      vertex 111.737 48.7216 46
      vertex 111.737 55.8618 46
    endloop
  endfacet
  facet normal 0 0 1
    outer loop
      vertex 110.72 56.4492 46
      vertex 111.737 48.7216 46
      vertex 111.247 56.1888 46
    endloop
  endfacet
  facet normal 0 0 1
    outer loop
      vertex 110.162 56.6384 46
      vertex 111.737 48.7216 46
      vertex 110.72 56.4492 46
    endloop
  endfacet
  facet normal 0 0 1
    outer loop
      vertex 109.585 56.7532 46
      vertex 111.737 48.7216 46
      vertex 110.162 56.6384 46
    endloop
  endfacet
  facet normal 0 0 1
    outer loop
      vertex 108.997 56.7917 46
      vertex 111.737 48.7216 46
      vertex 109.585 56.7532 46
    endloop
  endfacet
  facet normal -0 0 1
    outer loop
      vertex 108.41 56.7532 46
      vertex 111.737 48.7216 46
      vertex 108.997 56.7917 46
    endloop
  endfacet
  facet normal -0 0 1
    outer loop
      vertex 107.833 56.6384 46
      vertex 111.737 48.7216 46
      vertex 108.41 56.7532 46
    endloop
  endfacet
  facet normal -0 0 1
    outer loop
      vertex 107.275 56.4492 46
      vertex 111.737 48.7216 46
      vertex 107.833 56.6384 46
    endloop
  endfacet
  facet normal -0 0 1
    outer loop
      vertex 106.747 56.1888 46
      vertex 111.737 48.7216 46
      vertex 107.275 56.4492 46
    endloop
  endfacet
  facet normal -0 0 1
    outer loop
      vertex 106.258 55.8618 46
      vertex 111.737 48.7216 46
      vertex 106.747 56.1888 46
    endloop
  endfacet
  facet normal 0 0 1
    outer loop
      vertex 60.2954 17.2945 46
      vertex 111.737 48.7216 46
      vertex 106.258 55.8618 46
    endloop
  endfacet
  facet normal 0 0 1
    outer loop
      vertex 111.737 48.7216 46
      vertex 60.2954 17.2945 46
      vertex 65.7743 10.1543 46
    endloop
  endfacet
  facet normal -0 0 1
    outer loop
      vertex 59.5472 16.7204 46
      vertex 65.7743 10.1543 46
      vertex 60.2954 17.2945 46
    endloop
  endfacet
  facet normal 0 0 1
    outer loop
      vertex 65.7743 10.1543 46
      vertex 59.5472 16.7204 46
      vertex 64.9091 9.49051 46
    endloop
  endfacet
  facet normal 0 0 1
    outer loop
      vertex 64.9091 9.49051 46
      vertex 59.5472 16.7204 46
      vertex 64.4197 9.16348 46
    endloop
  endfacet
  facet normal -0 0 1
    outer loop
      vertex 59 16.3718 46
      vertex 64.4197 9.16348 46
      vertex 59.5472 16.7204 46
    endloop
  endfacet
  facet normal 0 0 1
    outer loop
      vertex 64.4197 9.16348 46
      vertex 59 16.3718 46
      vertex 63.5 8.57756 46
    endloop
  endfacet
  facet normal 0 0 1
    outer loop
      vertex 63.5 8.57756 46
      vertex 59 16.3718 46
      vertex 62.5327 8.07404 46
    endloop
  endfacet
  facet normal -0 0 1
    outer loop
      vertex 58.4245 16.0722 46
      vertex 62.5327 8.07404 46
      vertex 59 16.3718 46
    endloop
  endfacet
  facet normal 0 0 1
    outer loop
      vertex 62.5327 8.07404 46
      vertex 58.4245 16.0722 46
      vertex 62.0048 7.81369 46
    endloop
  endfacet
  facet normal 0 0 1
    outer loop
      vertex 62.0048 7.81369 46
      vertex 58.4245 16.0722 46
      vertex 61.9339 7.78432 46
    endloop
  endfacet
  facet normal -0 0 1
    outer loop
      vertex 57.6893 15.7677 46
      vertex 61.9339 7.78432 46
      vertex 58.4245 16.0722 46
    endloop
  endfacet
  facet normal -0 0 1
    outer loop
      vertex 57.0705 15.5726 46
      vertex 61.9339 7.78432 46
      vertex 57.6893 15.7677 46
    endloop
  endfacet
  facet normal -0 0 1
    outer loop
      vertex 56.4372 15.4322 46
      vertex 61.9339 7.78432 46
      vertex 57.0705 15.5726 46
    endloop
  endfacet
  facet normal -0 0 1
    outer loop
      vertex 55.6481 15.3283 46
      vertex 61.9339 7.78432 46
      vertex 56.4372 15.4322 46
    endloop
  endfacet
  facet normal -0 0 1
    outer loop
      vertex 55 15.3 46
      vertex 61.9339 7.78432 46
      vertex 55.6481 15.3283 46
    endloop
  endfacet
  facet normal 0 0 1
    outer loop
      vertex 49.7243 6.3 46
      vertex 61.9339 7.78432 46
      vertex 55 15.3 46
    endloop
  endfacet
  facet normal 0 0 1
    outer loop
      vertex 61.9339 7.78432 46
      vertex 49.7243 6.3 46
      vertex 55 0 46
    endloop
  endfacet
  facet normal 0 0 1
    outer loop
      vertex 55 15.3 46
      vertex 5.27574 6.3 46
      vertex 49.7243 6.3 46
    endloop
  endfacet
  facet normal 0 -0 1
    outer loop
      vertex 5.27574 6.3 46
      vertex 55 15.3 46
      vertex 0 15.3 46
    endloop
  endfacet
  facet normal 0 0 1
    outer loop
      vertex 55 0 46
      vertex 49.7243 6.3 46
      vertex 43.4243 0 46
    endloop
  endfacet
  facet normal 0 0 1
    outer loop
      vertex 5.27574 6.3 46
      vertex 0 0 46
      vertex 11.5757 0 46
    endloop
  endfacet
  facet normal 0 0 1
    outer loop
      vertex 0 0 46
      vertex 5.27574 6.3 46
      vertex 0 15.3 46
    endloop
  endfacet
  facet normal 0 0 -1
    outer loop
      vertex 113.459 51.7043 0
      vertex 113.459 52.8791 0
      vertex 113.497 52.2917 0
    endloop
  endfacet
  facet normal 0 0 -1
    outer loop
      vertex 113.344 51.127 0
      vertex 113.459 52.8791 0
      vertex 113.459 51.7043 0
    endloop
  endfacet
  facet normal 0 0 -1
    outer loop
      vertex 113.344 51.127 0
      vertex 113.344 53.4564 0
      vertex 113.459 52.8791 0
    endloop
  endfacet
  facet normal 0 0 -1
    outer loop
      vertex 113.155 50.5696 0
      vertex 113.344 53.4564 0
      vertex 113.344 51.127 0
    endloop
  endfacet
  facet normal 0 0 -1
    outer loop
      vertex 113.155 50.5696 0
      vertex 113.155 54.0138 0
      vertex 113.344 53.4564 0
    endloop
  endfacet
  facet normal 0 0 -1
    outer loop
      vertex 112.895 50.0417 0
      vertex 113.155 54.0138 0
      vertex 113.155 50.5696 0
    endloop
  endfacet
  facet normal 0 0 -1
    outer loop
      vertex 112.895 50.0417 0
      vertex 112.895 54.5417 0
      vertex 113.155 54.0138 0
    endloop
  endfacet
  facet normal 0 0 -1
    outer loop
      vertex 112.568 49.5523 0
      vertex 112.895 54.5417 0
      vertex 112.895 50.0417 0
    endloop
  endfacet
  facet normal 0 0 -1
    outer loop
      vertex 112.568 49.5523 0
      vertex 112.568 55.0311 0
      vertex 112.895 54.5417 0
    endloop
  endfacet
  facet normal 0 0 -1
    outer loop
      vertex 112.179 49.1097 0
      vertex 112.568 55.0311 0
      vertex 112.568 49.5523 0
    endloop
  endfacet
  facet normal 0 0 -1
    outer loop
      vertex 112.179 49.1097 0
      vertex 112.179 55.4737 0
      vertex 112.568 55.0311 0
    endloop
  endfacet
  facet normal 0 0 -1
    outer loop
      vertex 111.737 48.7216 0
      vertex 112.179 55.4737 0
      vertex 112.179 49.1097 0
    endloop
  endfacet
  facet normal 0 0 -1
    outer loop
      vertex 111.737 48.7216 0
      vertex 111.737 55.8618 0
      vertex 112.179 55.4737 0
    endloop
  endfacet
  facet normal 0 0 -1
    outer loop
      vertex 111.737 48.7216 0
      vertex 111.247 56.1888 0
      vertex 111.737 55.8618 0
    endloop
  endfacet
  facet normal 0 0 -1
    outer loop
      vertex 111.737 48.7216 0
      vertex 110.72 56.4492 0
      vertex 111.247 56.1888 0
    endloop
  endfacet
  facet normal 0 0 -1
    outer loop
      vertex 111.737 48.7216 0
      vertex 110.162 56.6384 0
      vertex 110.72 56.4492 0
    endloop
  endfacet
  facet normal 0 0 -1
    outer loop
      vertex 111.737 48.7216 0
      vertex 109.585 56.7532 0
      vertex 110.162 56.6384 0
    endloop
  endfacet
  facet normal 0 0 -1
    outer loop
      vertex 111.737 48.7216 0
      vertex 108.997 56.7917 0
      vertex 109.585 56.7532 0
    endloop
  endfacet
  facet normal 0 0 -1
    outer loop
      vertex 111.737 48.7216 0
      vertex 108.41 56.7532 0
      vertex 108.997 56.7917 0
    endloop
  endfacet
  facet normal 0 0 -1
    outer loop
      vertex 111.737 48.7216 0
      vertex 107.833 56.6384 0
      vertex 108.41 56.7532 0
    endloop
  endfacet
  facet normal 0 0 -1
    outer loop
      vertex 111.737 48.7216 0
      vertex 107.275 56.4492 0
      vertex 107.833 56.6384 0
    endloop
  endfacet
  facet normal 0 0 -1
    outer loop
      vertex 111.737 48.7216 0
      vertex 106.747 56.1888 0
      vertex 107.275 56.4492 0
    endloop
  endfacet
  facet normal 0 0 -1
    outer loop
      vertex 111.737 48.7216 0
      vertex 106.258 55.8618 0
      vertex 106.747 56.1888 0
    endloop
  endfacet
  facet normal 0 0 -1
    outer loop
      vertex 60.2954 17.2945 0
      vertex 111.737 48.7216 0
      vertex 65.7743 10.1543 0
    endloop
  endfacet
  facet normal 0 0 -1
    outer loop
      vertex 59.5472 16.7204 0
      vertex 65.7743 10.1543 0
      vertex 64.9091 9.49051 0
    endloop
  endfacet
  facet normal 0 0 -1
    outer loop
      vertex 59.5472 16.7204 0
      vertex 64.9091 9.49051 0
      vertex 64.4197 9.16348 0
    endloop
  endfacet
  facet normal 0 0 -1
    outer loop
      vertex 59 16.3718 0
      vertex 64.4197 9.16348 0
      vertex 63.5 8.57756 0
    endloop
  endfacet
  facet normal 0 0 -1
    outer loop
      vertex 59 16.3718 0
      vertex 63.5 8.57756 0
      vertex 62.5327 8.07404 0
    endloop
  endfacet
  facet normal 0 0 -1
    outer loop
      vertex 58.4245 16.0722 0
      vertex 62.5327 8.07404 0
      vertex 62.0048 7.81369 0
    endloop
  endfacet
  facet normal 0 0 -1
    outer loop
      vertex 58.4245 16.0722 0
      vertex 62.0048 7.81369 0
      vertex 61.9339 7.78432 0
    endloop
  endfacet
  facet normal -0 0 -1
    outer loop
      vertex 111.737 48.7216 0
      vertex 60.2954 17.2945 0
      vertex 106.258 55.8618 0
    endloop
  endfacet
  facet normal 0 0 -1
    outer loop
      vertex 65.7743 10.1543 0
      vertex 59.5472 16.7204 0
      vertex 60.2954 17.2945 0
    endloop
  endfacet
  facet normal 0 0 -1
    outer loop
      vertex 64.4197 9.16348 0
      vertex 59 16.3718 0
      vertex 59.5472 16.7204 0
    endloop
  endfacet
  facet normal 0 0 -1
    outer loop
      vertex 62.5327 8.07404 0
      vertex 58.4245 16.0722 0
      vertex 59 16.3718 0
    endloop
  endfacet
  facet normal 0 0 -1
    outer loop
      vertex 61.9339 7.78432 0
      vertex 57.6893 15.7677 0
      vertex 58.4245 16.0722 0
    endloop
  endfacet
  facet normal 0 0 -1
    outer loop
      vertex 61.9339 7.78432 0
      vertex 57.0705 15.5726 0
      vertex 57.6893 15.7677 0
    endloop
  endfacet
  facet normal 0 0 -1
    outer loop
      vertex 61.9339 7.78432 0
      vertex 56.4372 15.4322 0
      vertex 57.0705 15.5726 0
    endloop
  endfacet
  facet normal 0 0 -1
    outer loop
      vertex 61.9339 7.78432 0
      vertex 55.6481 15.3283 0
      vertex 56.4372 15.4322 0
    endloop
  endfacet
  facet normal 0 0 -1
    outer loop
      vertex 55 15.3 0
      vertex 61.9339 7.78432 0
      vertex 55 0 0
    endloop
  endfacet
  facet normal 0 0 -1
    outer loop
      vertex 61.9339 7.78432 0
      vertex 55 15.3 0
      vertex 55.6481 15.3283 0
    endloop
  endfacet
  facet normal 0 0 -1
    outer loop
      vertex 0 0 0
      vertex 55 15.3 0
      vertex 55 0 0
    endloop
  endfacet
  facet normal -0 0 -1
    outer loop
      vertex 55 15.3 0
      vertex 0 0 0
      vertex 0 15.3 0
    endloop
  endfacet
  facet normal 0 1 -0
    outer loop
      vertex 55 15.3 0
      vertex 0 15.3 46
      vertex 55 15.3 46
    endloop
  endfacet
  facet normal 0 1 0
    outer loop
      vertex 0 15.3 46
      vertex 55 15.3 0
      vertex 0 15.3 0
    endloop
  endfacet
  facet normal -0.0436245 0.999048 0
    outer loop
      vertex 55.6481 15.3283 0
      vertex 55 15.3 46
      vertex 55.6481 15.3283 46
    endloop
  endfacet
  facet normal -0.0436245 0.999048 0
    outer loop
      vertex 55 15.3 46
      vertex 55.6481 15.3283 0
      vertex 55 15.3 0
    endloop
  endfacet
  facet normal -0.130542 0.991443 0
    outer loop
      vertex 56.4372 15.4322 0
      vertex 55.6481 15.3283 46
      vertex 56.4372 15.4322 46
    endloop
  endfacet
  facet normal -0.130542 0.991443 0
    outer loop
      vertex 55.6481 15.3283 46
      vertex 56.4372 15.4322 0
      vertex 55.6481 15.3283 0
    endloop
  endfacet
  facet normal -0.216441 0.976296 0
    outer loop
      vertex 57.0705 15.5726 0
      vertex 56.4372 15.4322 46
      vertex 57.0705 15.5726 46
    endloop
  endfacet
  facet normal -0.216441 0.976296 0
    outer loop
      vertex 56.4372 15.4322 46
      vertex 57.0705 15.5726 0
      vertex 56.4372 15.4322 0
    endloop
  endfacet
  facet normal -0.300696 0.95372 0
    outer loop
      vertex 57.6893 15.7677 0
      vertex 57.0705 15.5726 46
      vertex 57.6893 15.7677 46
    endloop
  endfacet
  facet normal -0.300696 0.95372 0
    outer loop
      vertex 57.0705 15.5726 46
      vertex 57.6893 15.7677 0
      vertex 57.0705 15.5726 0
    endloop
  endfacet
  facet normal -0.382651 0.923893 0
    outer loop
      vertex 58.4245 16.0722 0
      vertex 57.6893 15.7677 46
      vertex 58.4245 16.0722 46
    endloop
  endfacet
  facet normal -0.382651 0.923893 0
    outer loop
      vertex 57.6893 15.7677 46
      vertex 58.4245 16.0722 0
      vertex 57.6893 15.7677 0
    endloop
  endfacet
  facet normal -0.461765 0.887002 0
    outer loop
      vertex 59 16.3718 0
      vertex 58.4245 16.0722 46
      vertex 59 16.3718 46
    endloop
  endfacet
  facet normal -0.461765 0.887002 0
    outer loop
      vertex 58.4245 16.0722 46
      vertex 59 16.3718 0
      vertex 58.4245 16.0722 0
    endloop
  endfacet
  facet normal -0.537294 0.843395 0
    outer loop
      vertex 59.5472 16.7204 0
      vertex 59 16.3718 46
      vertex 59.5472 16.7204 46
    endloop
  endfacet
  facet normal -0.537294 0.843395 0
    outer loop
      vertex 59 16.3718 46
      vertex 59.5472 16.7204 0
      vertex 59 16.3718 0
    endloop
  endfacet
  facet normal -0.608752 0.793361 0
    outer loop
      vertex 60.2954 17.2945 0
      vertex 59.5472 16.7204 46
      vertex 60.2954 17.2945 46
    endloop
  endfacet
  facet normal -0.608752 0.793361 0
    outer loop
      vertex 59.5472 16.7204 46
      vertex 60.2954 17.2945 0
      vertex 59.5472 16.7204 0
    endloop
  endfacet
  facet normal -0.642789 0.766044 0
    outer loop
      vertex 106.258 55.8618 0
      vertex 60.2954 17.2945 46
      vertex 106.258 55.8618 46
    endloop
  endfacet
  facet normal -0.642789 0.766044 0
    outer loop
      vertex 60.2954 17.2945 46
      vertex 106.258 55.8618 0
      vertex 60.2954 17.2945 0
    endloop
  endfacet
  facet normal -0.555877 0.831265 0
    outer loop
      vertex 106.747 56.1888 0
      vertex 106.258 55.8618 46
      vertex 106.747 56.1888 46
    endloop
  endfacet
  facet normal -0.555877 0.831265 0
    outer loop
      vertex 106.258 55.8618 46
      vertex 106.747 56.1888 0
      vertex 106.258 55.8618 0
    endloop
  endfacet
  facet normal -0.442315 0.89686 0
    outer loop
      vertex 107.275 56.4492 0
      vertex 106.747 56.1888 46
      vertex 107.275 56.4492 46
    endloop
  endfacet
  facet normal -0.442315 0.89686 0
    outer loop
      vertex 106.747 56.1888 46
      vertex 107.275 56.4492 0
      vertex 106.747 56.1888 0
    endloop
  endfacet
  facet normal -0.321112 0.947041 0
    outer loop
      vertex 107.833 56.6384 0
      vertex 107.275 56.4492 46
      vertex 107.833 56.6384 46
    endloop
  endfacet
  facet normal -0.321112 0.947041 0
    outer loop
      vertex 107.275 56.4492 46
      vertex 107.833 56.6384 0
      vertex 107.275 56.4492 0
    endloop
  endfacet
  facet normal -0.195135 0.980776 0
    outer loop
      vertex 108.41 56.7532 0
      vertex 107.833 56.6384 46
      vertex 108.41 56.7532 46
    endloop
  endfacet
  facet normal -0.195135 0.980776 0
    outer loop
      vertex 107.833 56.6384 46
      vertex 108.41 56.7532 0
      vertex 107.833 56.6384 0
    endloop
  endfacet
  facet normal -0.0654471 0.997856 0
    outer loop
      vertex 108.997 56.7917 0
      vertex 108.41 56.7532 46
      vertex 108.997 56.7917 46
    endloop
  endfacet
  facet normal -0.0654471 0.997856 0
    outer loop
      vertex 108.41 56.7532 46
      vertex 108.997 56.7917 0
      vertex 108.41 56.7532 0
    endloop
  endfacet
  facet normal 0.0653363 0.997863 -0
    outer loop
      vertex 109.585 56.7532 0
      vertex 108.997 56.7917 46
      vertex 109.585 56.7532 46
    endloop
  endfacet
  facet normal 0.0653363 0.997863 0
    outer loop
      vertex 108.997 56.7917 46
      vertex 109.585 56.7532 0
      vertex 108.997 56.7917 0
    endloop
  endfacet
  facet normal 0.195135 0.980776 -0
    outer loop
      vertex 110.162 56.6384 0
      vertex 109.585 56.7532 46
      vertex 110.162 56.6384 46
    endloop
  endfacet
  facet normal 0.195135 0.980776 0
    outer loop
      vertex 109.585 56.7532 46
      vertex 110.162 56.6384 0
      vertex 109.585 56.7532 0
    endloop
  endfacet
  facet normal 0.321112 0.947041 -0
    outer loop
      vertex 110.72 56.4492 0
      vertex 110.162 56.6384 46
      vertex 110.72 56.4492 46
    endloop
  endfacet
  facet normal 0.321112 0.947041 0
    outer loop
      vertex 110.162 56.6384 46
      vertex 110.72 56.4492 0
      vertex 110.162 56.6384 0
    endloop
  endfacet
  facet normal 0.44299 0.896527 -0
    outer loop
      vertex 111.247 56.1888 0
      vertex 110.72 56.4492 46
      vertex 111.247 56.1888 46
    endloop
  endfacet
  facet normal 0.44299 0.896527 0
    outer loop
      vertex 110.72 56.4492 46
      vertex 111.247 56.1888 0
      vertex 110.72 56.4492 0
    endloop
  endfacet
  facet normal 0.555092 0.831789 -0
    outer loop
      vertex 111.737 55.8618 0
      vertex 111.247 56.1888 46
      vertex 111.737 55.8618 46
    endloop
  endfacet
  facet normal 0.555092 0.831789 0
    outer loop
      vertex 111.247 56.1888 46
      vertex 111.737 55.8618 0
      vertex 111.247 56.1888 0
    endloop
  endfacet
  facet normal 0.659804 0.751438 -0
    outer loop
      vertex 112.179 55.4737 0
      vertex 111.737 55.8618 46
      vertex 112.179 55.4737 46
    endloop
  endfacet
  facet normal 0.659804 0.751438 0
    outer loop
      vertex 111.737 55.8618 46
      vertex 112.179 55.4737 0
      vertex 111.737 55.8618 0
    endloop
  endfacet
  facet normal 0.751124 0.660161 0
    outer loop
      vertex 112.568 55.0311 46
      vertex 112.179 55.4737 0
      vertex 112.179 55.4737 46
    endloop
  endfacet
  facet normal 0.751124 0.660161 0
    outer loop
      vertex 112.179 55.4737 0
      vertex 112.568 55.0311 46
      vertex 112.568 55.0311 0
    endloop
  endfacet
  facet normal 0.831475 0.555562 0
    outer loop
      vertex 112.895 54.5417 46
      vertex 112.568 55.0311 0
      vertex 112.568 55.0311 46
    endloop
  endfacet
  facet normal 0.831475 0.555562 0
    outer loop
      vertex 112.568 55.0311 0
      vertex 112.895 54.5417 46
      vertex 112.895 54.5417 0
    endloop
  endfacet
  facet normal 0.897096 0.441836 0
    outer loop
      vertex 113.155 54.0138 46
      vertex 112.895 54.5417 0
      vertex 112.895 54.5417 46
    endloop
  endfacet
  facet normal 0.897096 0.441836 0
    outer loop
      vertex 112.895 54.5417 0
      vertex 113.155 54.0138 46
      vertex 113.155 54.0138 0
    endloop
  endfacet
  facet normal 0.94704 0.321117 0
    outer loop
      vertex 113.344 53.4564 46
      vertex 113.155 54.0138 0
      vertex 113.155 54.0138 46
    endloop
  endfacet
  facet normal 0.94704 0.321117 0
    outer loop
      vertex 113.155 54.0138 0
      vertex 113.344 53.4564 46
      vertex 113.344 53.4564 0
    endloop
  endfacet
  facet normal 0.980731 0.195365 0
    outer loop
      vertex 113.459 52.8791 46
      vertex 113.344 53.4564 0
      vertex 113.344 53.4564 46
    endloop
  endfacet
  facet normal 0.980731 0.195365 0
    outer loop
      vertex 113.344 53.4564 0
      vertex 113.459 52.8791 46
      vertex 113.459 52.8791 0
    endloop
  endfacet
  facet normal 0.997914 0.0645569 0
    outer loop
      vertex 113.497 52.2917 46
      vertex 113.459 52.8791 0
      vertex 113.459 52.8791 46
    endloop
  endfacet
  facet normal 0.997914 0.0645569 0
    outer loop
      vertex 113.459 52.8791 0
      vertex 113.497 52.2917 46
      vertex 113.497 52.2917 0
    endloop
  endfacet
  facet normal 0.997914 -0.0645569 0
    outer loop
      vertex 113.459 51.7043 46
      vertex 113.497 52.2917 0
      vertex 113.497 52.2917 46
    endloop
  endfacet
  facet normal 0.997914 -0.0645569 0
    outer loop
      vertex 113.497 52.2917 0
      vertex 113.459 51.7043 46
      vertex 113.459 51.7043 0
    endloop
  endfacet
  facet normal 0.980731 -0.195365 0
    outer loop
      vertex 113.344 51.127 46
      vertex 113.459 51.7043 0
      vertex 113.459 51.7043 46
    endloop
  endfacet
  facet normal 0.980731 -0.195365 0
    outer loop
      vertex 113.459 51.7043 0
      vertex 113.344 51.127 46
      vertex 113.344 51.127 0
    endloop
  endfacet
  facet normal 0.94704 -0.321117 0
    outer loop
      vertex 113.155 50.5696 46
      vertex 113.344 51.127 0
      vertex 113.344 51.127 46
    endloop
  endfacet
  facet normal 0.94704 -0.321117 0
    outer loop
      vertex 113.344 51.127 0
      vertex 113.155 50.5696 46
      vertex 113.155 50.5696 0
    endloop
  endfacet
  facet normal 0.897096 -0.441836 0
    outer loop
      vertex 112.895 50.0417 46
      vertex 113.155 50.5696 0
      vertex 113.155 50.5696 46
    endloop
  endfacet
  facet normal 0.897096 -0.441836 0
    outer loop
      vertex 113.155 50.5696 0
      vertex 112.895 50.0417 46
      vertex 112.895 50.0417 0
    endloop
  endfacet
  facet normal 0.831475 -0.555562 0
    outer loop
      vertex 112.568 49.5523 46
      vertex 112.895 50.0417 0
      vertex 112.895 50.0417 46
    endloop
  endfacet
  facet normal 0.831475 -0.555562 0
    outer loop
      vertex 112.895 50.0417 0
      vertex 112.568 49.5523 46
      vertex 112.568 49.5523 0
    endloop
  endfacet
  facet normal 0.751124 -0.660161 0
    outer loop
      vertex 112.179 49.1097 46
      vertex 112.568 49.5523 0
      vertex 112.568 49.5523 46
    endloop
  endfacet
  facet normal 0.751124 -0.660161 0
    outer loop
      vertex 112.568 49.5523 0
      vertex 112.179 49.1097 46
      vertex 112.179 49.1097 0
    endloop
  endfacet
  facet normal 0.659804 -0.751438 0
    outer loop
      vertex 111.737 48.7216 0
      vertex 112.179 49.1097 46
      vertex 111.737 48.7216 46
    endloop
  endfacet
  facet normal 0.659804 -0.751438 0
    outer loop
      vertex 112.179 49.1097 46
      vertex 111.737 48.7216 0
      vertex 112.179 49.1097 0
    endloop
  endfacet
  facet normal 0.642788 -0.766044 0
    outer loop
      vertex 65.7743 10.1543 0
      vertex 111.737 48.7216 46
      vertex 65.7743 10.1543 46
    endloop
  endfacet
  facet normal 0.642788 -0.766044 0
    outer loop
      vertex 111.737 48.7216 46
      vertex 65.7743 10.1543 0
      vertex 111.737 48.7216 0
    endloop
  endfacet
  facet normal 0.608703 -0.793398 0
    outer loop
      vertex 64.9091 9.49051 0
      vertex 65.7743 10.1543 46
      vertex 64.9091 9.49051 46
    endloop
  endfacet
  facet normal 0.608703 -0.793398 0
    outer loop
      vertex 65.7743 10.1543 46
      vertex 64.9091 9.49051 0
      vertex 65.7743 10.1543 0
    endloop
  endfacet
  facet normal 0.555598 -0.831451 0
    outer loop
      vertex 64.4197 9.16348 0
      vertex 64.9091 9.49051 46
      vertex 64.4197 9.16348 46
    endloop
  endfacet
  facet normal 0.555598 -0.831451 0
    outer loop
      vertex 64.9091 9.49051 46
      vertex 64.4197 9.16348 0
      vertex 64.9091 9.49051 0
    endloop
  endfacet
  facet normal 0.537304 -0.843389 0
    outer loop
      vertex 63.5 8.57756 0
      vertex 64.4197 9.16348 46
      vertex 63.5 8.57756 46
    endloop
  endfacet
  facet normal 0.537304 -0.843389 0
    outer loop
      vertex 64.4197 9.16348 46
      vertex 63.5 8.57756 0
      vertex 64.4197 9.16348 0
    endloop
  endfacet
  facet normal 0.461731 -0.88702 0
    outer loop
      vertex 62.5327 8.07404 0
      vertex 63.5 8.57756 46
      vertex 62.5327 8.07404 46
    endloop
  endfacet
  facet normal 0.461731 -0.88702 0
    outer loop
      vertex 63.5 8.57756 46
      vertex 62.5327 8.07404 0
      vertex 63.5 8.57756 0
    endloop
  endfacet
  facet normal 0.442314 -0.89686 0
    outer loop
      vertex 62.0048 7.81369 0
      vertex 62.5327 8.07404 46
      vertex 62.0048 7.81369 46
    endloop
  endfacet
  facet normal 0.442314 -0.89686 0
    outer loop
      vertex 62.5327 8.07404 46
      vertex 62.0048 7.81369 0
      vertex 62.5327 8.07404 0
    endloop
  endfacet
  facet normal 0.382709 -0.923869 0
    outer loop
      vertex 61.9339 7.78432 0
      vertex 62.0048 7.81369 46
      vertex 61.9339 7.78432 46
    endloop
  endfacet
  facet normal 0.382709 -0.923869 0
    outer loop
      vertex 62.0048 7.81369 46
      vertex 61.9339 7.78432 0
      vertex 62.0048 7.81369 0
    endloop
  endfacet
  facet normal 0.746714 -0.665145 0
    outer loop
      vertex 61.9339 7.78432 46
      vertex 59.1865 4.7 23
      vertex 61.9339 7.78432 0
    endloop
  endfacet
  facet normal 0.747147 -0.664659 -0.000116944
    outer loop
      vertex 61.9339 7.78432 46
      vertex 59.1736 4.68546 23.2219
      vertex 59.1865 4.7 23
    endloop
  endfacet
  facet normal 0.746464 -0.665426 7.0181e-05
    outer loop
      vertex 61.9339 7.78432 46
      vertex 59.1349 4.64207 23.44
      vertex 59.1736 4.68546 23.2219
    endloop
  endfacet
  facet normal 0.746978 -0.664849 -7.40361e-05
    outer loop
      vertex 61.9339 7.78432 46
      vertex 59.0713 4.57059 23.6506
      vertex 59.1349 4.64207 23.44
    endloop
  endfacet
  facet normal 0.746735 -0.665122 -3.67254e-06
    outer loop
      vertex 61.9339 7.78432 46
      vertex 58.9837 4.47224 23.85
      vertex 59.0713 4.57059 23.6506
    endloop
  endfacet
  facet normal 0.74658 -0.665295 4.28711e-05
    outer loop
      vertex 61.9339 7.78432 46
      vertex 58.8736 4.3487 24.0349
      vertex 58.9837 4.47224 23.85
    endloop
  endfacet
  facet normal 0.746657 -0.665209 1.87569e-05
    outer loop
      vertex 61.9339 7.78432 46
      vertex 58.7446 4.20391 24.2
      vertex 58.8736 4.3487 24.0349
    endloop
  endfacet
  facet normal 0.746718 -0.665141 -1.43835e-06
    outer loop
      vertex 55 0 46
      vertex 58.7446 4.20391 24.2
      vertex 61.9339 7.78432 46
    endloop
  endfacet
  facet normal 0.746729 -0.665128 2.80245e-06
    outer loop
      vertex 58.7446 4.20391 24.2
      vertex 55 0 46
      vertex 56.5999 1.79609 24.2
    endloop
  endfacet
  facet normal 0.746652 -0.665215 -9.96608e-06
    outer loop
      vertex 56.5999 1.79609 24.2
      vertex 55 0 46
      vertex 56.4709 1.6513 24.0349
    endloop
  endfacet
  facet normal 0.746835 -0.665009 1.78084e-05
    outer loop
      vertex 56.4709 1.6513 24.0349
      vertex 55 0 46
      vertex 56.3609 1.52776 23.85
    endloop
  endfacet
  facet normal 0.746404 -0.665493 -4.20944e-05
    outer loop
      vertex 56.3609 1.52776 23.85
      vertex 55 0 46
      vertex 56.2732 1.42941 23.6506
    endloop
  endfacet
  facet normal 0.747421 -0.664351 8.07789e-05
    outer loop
      vertex 56.1709 1.31454 23.2219
      vertex 55 0 46
      vertex 56.158 1.3 23
    endloop
  endfacet
  facet normal 0.746387 -0.665512 -3.94237e-05
    outer loop
      vertex 56.2096 1.35793 23.44
      vertex 55 0 46
      vertex 56.1709 1.31454 23.2219
    endloop
  endfacet
  facet normal 0.74703 -0.66479 3.8505e-05
    outer loop
      vertex 56.2732 1.42941 23.6506
      vertex 55 0 46
      vertex 56.2096 1.35793 23.44
    endloop
  endfacet
  facet normal 0.747147 -0.664659 0.000116944
    outer loop
      vertex 59.1736 4.68546 22.7781
      vertex 61.9339 7.78432 0
      vertex 59.1865 4.7 23
    endloop
  endfacet
  facet normal 0.746464 -0.665426 -7.0181e-05
    outer loop
      vertex 59.1349 4.64207 22.56
      vertex 61.9339 7.78432 0
      vertex 59.1736 4.68546 22.7781
    endloop
  endfacet
  facet normal 0.746978 -0.664849 7.40361e-05
    outer loop
      vertex 59.0713 4.57059 22.3494
      vertex 61.9339 7.78432 0
      vertex 59.1349 4.64207 22.56
    endloop
  endfacet
  facet normal 0.746735 -0.665122 3.67254e-06
    outer loop
      vertex 58.9837 4.47224 22.15
      vertex 61.9339 7.78432 0
      vertex 59.0713 4.57059 22.3494
    endloop
  endfacet
  facet normal 0.74658 -0.665295 -4.28711e-05
    outer loop
      vertex 58.8736 4.3487 21.9651
      vertex 61.9339 7.78432 0
      vertex 58.9837 4.47224 22.15
    endloop
  endfacet
  facet normal 0.746722 -0.665136 1.81301e-06
    outer loop
      vertex 58.743 4.20208 21.7979
      vertex 61.9339 7.78432 0
      vertex 58.8736 4.3487 21.9651
    endloop
  endfacet
  facet normal 0.746766 -0.665087 1.63044e-05
    outer loop
      vertex 58.5941 4.03489 21.6513
      vertex 61.9339 7.78432 0
      vertex 58.743 4.20208 21.7979
    endloop
  endfacet
  facet normal 0.746702 -0.665158 -5.93511e-06
    outer loop
      vertex 58.4294 3.85 21.5278
      vertex 61.9339 7.78432 0
      vertex 58.5941 4.03489 21.6513
    endloop
  endfacet
  facet normal 0.746636 -0.665233 -3.04968e-05
    outer loop
      vertex 58.2517 3.65056 21.4294
      vertex 61.9339 7.78432 0
      vertex 58.4294 3.85 21.5278
    endloop
  endfacet
  facet normal 0.746826 -0.665019 4.36255e-05
    outer loop
      vertex 58.0642 3.43999 21.3579
      vertex 61.9339 7.78432 0
      vertex 58.2517 3.65056 21.4294
    endloop
  endfacet
  facet normal 0.746674 -0.66519 -1.87564e-05
    outer loop
      vertex 57.8699 3.22189 21.3145
      vertex 61.9339 7.78432 0
      vertex 58.0642 3.43999 21.3579
    endloop
  endfacet
  facet normal 0.746799 -0.66505 3.50057e-05
    outer loop
      vertex 57.6723 3 21.3
      vertex 61.9339 7.78432 0
      vertex 57.8699 3.22189 21.3145
    endloop
  endfacet
  facet normal 0.746634 -0.665236 2.24398e-05
    outer loop
      vertex 55 0 0
      vertex 57.6723 3 21.3
      vertex 57.4746 2.77811 21.3145
    endloop
  endfacet
  facet normal 0.746673 -0.665191 1.19788e-05
    outer loop
      vertex 55 0 0
      vertex 57.4746 2.77811 21.3145
      vertex 57.2803 2.56001 21.3579
    endloop
  endfacet
  facet normal 0.746829 -0.665016 -2.56736e-05
    outer loop
      vertex 55 0 0
      vertex 57.2803 2.56001 21.3579
      vertex 57.0928 2.34944 21.4294
    endloop
  endfacet
  facet normal 0.746632 -0.665237 1.78089e-05
    outer loop
      vertex 55 0 0
      vertex 57.0928 2.34944 21.4294
      vertex 56.9151 2.15 21.5278
    endloop
  endfacet
  facet normal 0.746702 -0.665159 3.89742e-06
    outer loop
      vertex 55 0 0
      vertex 56.9151 2.15 21.5278
      vertex 56.7504 1.96511 21.6513
    endloop
  endfacet
  facet normal 0.746769 -0.665083 -8.50289e-06
    outer loop
      vertex 55 0 0
      vertex 56.7504 1.96511 21.6513
      vertex 56.6015 1.79792 21.7979
    endloop
  endfacet
  facet normal 0.746723 -0.665135 -7.64102e-07
    outer loop
      vertex 55 0 0
      vertex 56.6015 1.79792 21.7979
      vertex 56.4709 1.6513 21.9651
    endloop
  endfacet
  facet normal 0.746835 -0.665009 -1.78084e-05
    outer loop
      vertex 55 0 0
      vertex 56.4709 1.6513 21.9651
      vertex 56.3609 1.52776 22.15
    endloop
  endfacet
  facet normal 0.746404 -0.665493 4.20944e-05
    outer loop
      vertex 55 0 0
      vertex 56.3609 1.52776 22.15
      vertex 56.2732 1.42941 22.3494
    endloop
  endfacet
  facet normal 0.74703 -0.66479 -3.8505e-05
    outer loop
      vertex 55 0 0
      vertex 56.2732 1.42941 22.3494
      vertex 56.2096 1.35793 22.56
    endloop
  endfacet
  facet normal 0.746718 -0.665141 -1.52372e-06
    outer loop
      vertex 57.6723 3 21.3
      vertex 55 0 0
      vertex 61.9339 7.78432 0
    endloop
  endfacet
  facet normal 0.746387 -0.665512 3.94237e-05
    outer loop
      vertex 56.1709 1.31454 22.7781
      vertex 55 0 0
      vertex 56.2096 1.35793 22.56
    endloop
  endfacet
  facet normal 0.747421 -0.664351 -8.07789e-05
    outer loop
      vertex 56.158 1.3 23
      vertex 55 0 0
      vertex 56.1709 1.31454 22.7781
    endloop
  endfacet
  facet normal 0.746712 -0.665148 0
    outer loop
      vertex 55 0 0
      vertex 56.158 1.3 23
      vertex 55 0 46
    endloop
  endfacet
  facet normal 0 -1 0
    outer loop
      vertex 0 0 46
      vertex 11.5757 0 2.7
      vertex 11.5757 0 46
    endloop
  endfacet
  facet normal 0 -1 -0
    outer loop
      vertex 11.5757 0 2.7
      vertex 0 0 0
      vertex 43.4243 0 2.7
    endloop
  endfacet
  facet normal 0 -1 0
    outer loop
      vertex 0 0 0
      vertex 11.5757 0 2.7
      vertex 0 0 46
    endloop
  endfacet
  facet normal 0 -1 0
    outer loop
      vertex 43.4243 0 2.7
      vertex 55 0 46
      vertex 43.4243 0 46
    endloop
  endfacet
  facet normal 0 -1 0
    outer loop
      vertex 43.4243 0 2.7
      vertex 55 0 0
      vertex 55 0 46
    endloop
  endfacet
  facet normal 0 -1 0
    outer loop
      vertex 55 0 0
      vertex 43.4243 0 2.7
      vertex 0 0 0
    endloop
  endfacet
  facet normal -1 0 0
    outer loop
      vertex 0 15.3 0
      vertex 0 4.7 23
      vertex 0 15.3 46
    endloop
  endfacet
  facet normal -1 0 0
    outer loop
      vertex 0 15.3 0
      vertex 0 4.68546 22.7781
      vertex 0 4.7 23
    endloop
  endfacet
  facet normal -1 0 0
    outer loop
      vertex 0 15.3 0
      vertex 0 4.64207 22.56
      vertex 0 4.68546 22.7781
    endloop
  endfacet
  facet normal -1 0 0
    outer loop
      vertex 0 15.3 0
      vertex 0 4.57059 22.3494
      vertex 0 4.64207 22.56
    endloop
  endfacet
  facet normal -1 0 0
    outer loop
      vertex 0 15.3 0
      vertex 0 4.47224 22.15
      vertex 0 4.57059 22.3494
    endloop
  endfacet
  facet normal -1 0 0
    outer loop
      vertex 0 15.3 0
      vertex 0 4.3487 21.9651
      vertex 0 4.47224 22.15
    endloop
  endfacet
  facet normal -1 0 0
    outer loop
      vertex 0 15.3 0
      vertex 0 4.20208 21.7979
      vertex 0 4.3487 21.9651
    endloop
  endfacet
  facet normal -1 0 0
    outer loop
      vertex 0 15.3 0
      vertex 0 4.03489 21.6513
      vertex 0 4.20208 21.7979
    endloop
  endfacet
  facet normal -1 0 0
    outer loop
      vertex 0 15.3 0
      vertex 0 3.85 21.5278
      vertex 0 4.03489 21.6513
    endloop
  endfacet
  facet normal -1 0 0
    outer loop
      vertex 0 15.3 0
      vertex 0 3.65056 21.4294
      vertex 0 3.85 21.5278
    endloop
  endfacet
  facet normal -1 0 0
    outer loop
      vertex 0 0 0
      vertex 0 3.65056 21.4294
      vertex 0 15.3 0
    endloop
  endfacet
  facet normal -1 0 0
    outer loop
      vertex 0 3.65056 21.4294
      vertex 0 0 0
      vertex 0 3.43999 21.3579
    endloop
  endfacet
  facet normal -1 0 0
    outer loop
      vertex 0 3.43999 21.3579
      vertex 0 0 0
      vertex 0 3.22189 21.3145
    endloop
  endfacet
  facet normal -1 0 0
    outer loop
      vertex 0 3.22189 21.3145
      vertex 0 0 0
      vertex 0 3 21.3
    endloop
  endfacet
  facet normal -1 -0 0
    outer loop
      vertex 0 3 21.3
      vertex 0 0 0
      vertex 0 2.77811 21.3145
    endloop
  endfacet
  facet normal -1 -0 0
    outer loop
      vertex 0 2.77811 21.3145
      vertex 0 0 0
      vertex 0 2.56001 21.3579
    endloop
  endfacet
  facet normal -1 -0 0
    outer loop
      vertex 0 2.56001 21.3579
      vertex 0 0 0
      vertex 0 2.34944 21.4294
    endloop
  endfacet
  facet normal -1 -0 0
    outer loop
      vertex 0 2.34944 21.4294
      vertex 0 0 0
      vertex 0 2.15 21.5278
    endloop
  endfacet
  facet normal -1 -0 0
    outer loop
      vertex 0 2.15 21.5278
      vertex 0 0 0
      vertex 0 1.96511 21.6513
    endloop
  endfacet
  facet normal -1 -0 0
    outer loop
      vertex 0 1.96511 21.6513
      vertex 0 0 0
      vertex 0 1.79792 21.7979
    endloop
  endfacet
  facet normal -1 -0 0
    outer loop
      vertex 0 1.79792 21.7979
      vertex 0 0 0
      vertex 0 1.6513 21.9651
    endloop
  endfacet
  facet normal -1 -0 0
    outer loop
      vertex 0 1.31454 22.7781
      vertex 0 0 0
      vertex 0 1.3 23
    endloop
  endfacet
  facet normal -1 -0 0
    outer loop
      vertex 0 1.35793 22.56
      vertex 0 0 0
      vertex 0 1.31454 22.7781
    endloop
  endfacet
  facet normal -1 -0 0
    outer loop
      vertex 0 1.42941 22.3494
      vertex 0 0 0
      vertex 0 1.35793 22.56
    endloop
  endfacet
  facet normal -1 -0 0
    outer loop
      vertex 0 1.52776 22.15
      vertex 0 0 0
      vertex 0 1.42941 22.3494
    endloop
  endfacet
  facet normal -1 -0 0
    outer loop
      vertex 0 1.6513 21.9651
      vertex 0 0 0
      vertex 0 1.52776 22.15
    endloop
  endfacet
  facet normal -1 0 0
    outer loop
      vertex 0 4.68546 23.2219
      vertex 0 15.3 46
      vertex 0 4.7 23
    endloop
  endfacet
  facet normal -1 0 0
    outer loop
      vertex 0 4.64207 23.44
      vertex 0 15.3 46
      vertex 0 4.68546 23.2219
    endloop
  endfacet
  facet normal -1 0 0
    outer loop
      vertex 0 4.57059 23.6506
      vertex 0 15.3 46
      vertex 0 4.64207 23.44
    endloop
  endfacet
  facet normal -1 0 0
    outer loop
      vertex 0 4.47224 23.85
      vertex 0 15.3 46
      vertex 0 4.57059 23.6506
    endloop
  endfacet
  facet normal -1 0 0
    outer loop
      vertex 0 4.3487 24.0349
      vertex 0 15.3 46
      vertex 0 4.47224 23.85
    endloop
  endfacet
  facet normal -1 0 0
    outer loop
      vertex 0 4.20391 24.2
      vertex 0 15.3 46
      vertex 0 4.3487 24.0349
    endloop
  endfacet
  facet normal -1 0 0
    outer loop
      vertex 0 0 46
      vertex 0 4.20391 24.2
      vertex 0 1.79609 24.2
    endloop
  endfacet
  facet normal -1 0 0
    outer loop
      vertex 0 0 46
      vertex 0 1.79609 24.2
      vertex 0 1.6513 24.0349
    endloop
  endfacet
  facet normal -1 0 0
    outer loop
      vertex 0 0 46
      vertex 0 1.6513 24.0349
      vertex 0 1.52776 23.85
    endloop
  endfacet
  facet normal -1 0 0
    outer loop
      vertex 0 4.20391 24.2
      vertex 0 0 46
      vertex 0 15.3 46
    endloop
  endfacet
  facet normal -1 0 0
    outer loop
      vertex 0 1.42941 23.6506
      vertex 0 0 46
      vertex 0 1.52776 23.85
    endloop
  endfacet
  facet normal -1 0 0
    outer loop
      vertex 0 1.35793 23.44
      vertex 0 0 46
      vertex 0 1.42941 23.6506
    endloop
  endfacet
  facet normal -1 0 0
    outer loop
      vertex 0 1.31454 23.2219
      vertex 0 0 46
      vertex 0 1.35793 23.44
    endloop
  endfacet
  facet normal -1 0 0
    outer loop
      vertex 0 1.3 23
      vertex 0 0 46
      vertex 0 1.31454 23.2219
    endloop
  endfacet
  facet normal -1 0 0
    outer loop
      vertex 0 0 46
      vertex 0 1.3 23
      vertex 0 0 0
    endloop
  endfacet
  facet normal 0 -1 0
    outer loop
      vertex 5.27574 6.3 2.7
      vertex 49.7243 6.3 46
      vertex 5.27574 6.3 46
    endloop
  endfacet
  facet normal 0 -1 -0
    outer loop
      vertex 49.7243 6.3 46
      vertex 5.27574 6.3 2.7
      vertex 49.7243 6.3 2.7
    endloop
  endfacet
  facet normal 0.707107 0.707107 0
    outer loop
      vertex 5.27574 6.3 46
      vertex 6.87574 4.7 23
      vertex 5.27574 6.3 2.7
    endloop
  endfacet
  facet normal 0.706989 0.707225 -1.64068e-05
    outer loop
      vertex 5.27574 6.3 46
      vertex 6.89029 4.68546 23.2219
      vertex 6.87574 4.7 23
    endloop
  endfacet
  facet normal 0.707166 0.707047 8.74641e-06
    outer loop
      vertex 5.27574 6.3 46
      vertex 6.93367 4.64207 23.44
      vertex 6.89029 4.68546 23.2219
    endloop
  endfacet
  facet normal 0.707107 0.707107 0
    outer loop
      vertex 5.27574 6.3 46
      vertex 7.00515 4.57059 23.6506
      vertex 6.93367 4.64207 23.44
    endloop
  endfacet
  facet normal 0.707107 0.707107 0
    outer loop
      vertex 5.27574 6.3 46
      vertex 7.1035 4.47224 23.85
      vertex 7.00515 4.57059 23.6506
    endloop
  endfacet
  facet normal 0.707107 0.707107 3.06423e-16
    outer loop
      vertex 5.27574 6.3 46
      vertex 7.22704 4.3487 24.0349
      vertex 7.1035 4.47224 23.85
    endloop
  endfacet
  facet normal 0.707107 0.707107 0
    outer loop
      vertex 5.27574 6.3 46
      vertex 7.37183 4.20391 24.2
      vertex 7.22704 4.3487 24.0349
    endloop
  endfacet
  facet normal 0.707109 0.707105 4.31677e-07
    outer loop
      vertex 11.5757 0 46
      vertex 7.37183 4.20391 24.2
      vertex 5.27574 6.3 46
    endloop
  endfacet
  facet normal 0.707108 0.707105 7.3113e-07
    outer loop
      vertex 7.37183 4.20391 24.2
      vertex 11.5757 0 46
      vertex 9.77964 1.79609 24.2
    endloop
  endfacet
  facet normal 0.707107 0.707106 8.89517e-07
    outer loop
      vertex 9.77964 1.79609 24.2
      vertex 11.5757 0 46
      vertex 9.92443 1.6513 24.0349
    endloop
  endfacet
  facet normal 0.70703 0.707183 1.24701e-05
    outer loop
      vertex 9.92443 1.6513 24.0349
      vertex 11.5757 0 46
      vertex 10.048 1.52776 23.85
    endloop
  endfacet
  facet normal 0.707266 0.706947 -2.0077e-05
    outer loop
      vertex 10.048 1.52776 23.85
      vertex 11.5757 0 46
      vertex 10.1463 1.42941 23.6506
    endloop
  endfacet
  facet normal 0.707629 0.706584 -5.90742e-05
    outer loop
      vertex 10.2612 1.31454 23.2219
      vertex 11.5757 0 46
      vertex 10.2757 1.3 23
    endloop
  endfacet
  facet normal 0.707046 0.707168 8.25192e-06
    outer loop
      vertex 10.2178 1.35793 23.44
      vertex 11.5757 0 46
      vertex 10.2612 1.31454 23.2219
    endloop
  endfacet
  facet normal 0.707024 0.70719 1.09124e-05
    outer loop
      vertex 10.1463 1.42941 23.6506
      vertex 11.5757 0 46
      vertex 10.2178 1.35793 23.44
    endloop
  endfacet
  facet normal 0.706996 0.707217 1.73976e-05
    outer loop
      vertex 6.89029 4.68546 22.7781
      vertex 5.27574 6.3 2.7
      vertex 6.87574 4.7 23
    endloop
  endfacet
  facet normal 0.707164 0.707049 -9.58399e-06
    outer loop
      vertex 6.93367 4.64207 22.56
      vertex 5.27574 6.3 2.7
      vertex 6.89029 4.68546 22.7781
    endloop
  endfacet
  facet normal 0.707107 0.707107 -2.21921e-17
    outer loop
      vertex 7.00515 4.57059 22.3494
      vertex 5.27574 6.3 2.7
      vertex 6.93367 4.64207 22.56
    endloop
  endfacet
  facet normal 0.707107 0.707107 -2.58538e-17
    outer loop
      vertex 7.1035 4.47224 22.15
      vertex 5.27574 6.3 2.7
      vertex 7.00515 4.57059 22.3494
    endloop
  endfacet
  facet normal 0.707107 0.707107 -4.43965e-16
    outer loop
      vertex 7.22704 4.3487 21.9651
      vertex 5.27574 6.3 2.7
      vertex 7.1035 4.47224 22.15
    endloop
  endfacet
  facet normal 0.707107 0.707107 0
    outer loop
      vertex 7.37366 4.20208 21.7979
      vertex 5.27574 6.3 2.7
      vertex 7.22704 4.3487 21.9651
    endloop
  endfacet
  facet normal 0.707107 0.707107 0
    outer loop
      vertex 7.54085 4.03489 21.6513
      vertex 5.27574 6.3 2.7
      vertex 7.37366 4.20208 21.7979
    endloop
  endfacet
  facet normal 0.707107 0.707107 1.86736e-16
    outer loop
      vertex 7.72574 3.85 21.5278
      vertex 5.27574 6.3 2.7
      vertex 7.54085 4.03489 21.6513
    endloop
  endfacet
  facet normal 0.707107 0.707107 0
    outer loop
      vertex 7.92518 3.65056 21.4294
      vertex 5.27574 6.3 2.7
      vertex 7.72574 3.85 21.5278
    endloop
  endfacet
  facet normal 0.707107 0.707107 -2.27919e-16
    outer loop
      vertex 8.13575 3.43999 21.3579
      vertex 5.27574 6.3 2.7
      vertex 7.92518 3.65056 21.4294
    endloop
  endfacet
  facet normal 0.707123 0.707091 -4.82275e-06
    outer loop
      vertex 8.35384 3.22189 21.3145
      vertex 5.27574 6.3 2.7
      vertex 8.13575 3.43999 21.3579
    endloop
  endfacet
  facet normal 0.707091 0.707123 5.58898e-06
    outer loop
      vertex 8.57574 3 21.3
      vertex 5.27574 6.3 2.7
      vertex 8.35384 3.22189 21.3145
    endloop
  endfacet
  facet normal 0.707107 0.707107 -1.5048e-06
    outer loop
      vertex 11.5757 0 2.7
      vertex 8.57574 3 21.3
      vertex 8.79763 2.77811 21.3145
    endloop
  endfacet
  facet normal 0.707107 0.707107 -1.47565e-06
    outer loop
      vertex 11.5757 0 2.7
      vertex 8.79763 2.77811 21.3145
      vertex 9.01573 2.56001 21.3579
    endloop
  endfacet
  facet normal 0.707107 0.707107 -1.44846e-06
    outer loop
      vertex 11.5757 0 2.7
      vertex 9.01573 2.56001 21.3579
      vertex 9.2263 2.34944 21.4294
    endloop
  endfacet
  facet normal 0.707124 0.70709 2.76619e-06
    outer loop
      vertex 11.5757 0 2.7
      vertex 9.2263 2.34944 21.4294
      vertex 9.42573 2.15 21.5278
    endloop
  endfacet
  facet normal 0.707089 0.707124 -5.10448e-06
    outer loop
      vertex 11.5757 0 2.7
      vertex 9.42573 2.15 21.5278
      vertex 9.61063 1.96511 21.6513
    endloop
  endfacet
  facet normal 0.707127 0.707087 2.65202e-06
    outer loop
      vertex 11.5757 0 2.7
      vertex 9.61063 1.96511 21.6513
      vertex 9.77781 1.79792 21.7979
    endloop
  endfacet
  facet normal 0.707107 0.707106 -1.00308e-06
    outer loop
      vertex 11.5757 0 2.7
      vertex 9.77781 1.79792 21.7979
      vertex 9.92443 1.6513 21.9651
    endloop
  endfacet
  facet normal 0.707031 0.707182 -1.40191e-05
    outer loop
      vertex 11.5757 0 2.7
      vertex 9.92443 1.6513 21.9651
      vertex 10.048 1.52776 22.15
    endloop
  endfacet
  facet normal 0.707264 0.70695 2.24811e-05
    outer loop
      vertex 11.5757 0 2.7
      vertex 10.048 1.52776 22.15
      vertex 10.1463 1.42941 22.3494
    endloop
  endfacet
  facet normal 0.707026 0.707188 -1.21472e-05
    outer loop
      vertex 11.5757 0 2.7
      vertex 10.1463 1.42941 22.3494
      vertex 10.2178 1.35793 22.56
    endloop
  endfacet
  facet normal 0.707109 0.707105 -7.96539e-07
    outer loop
      vertex 8.57574 3 21.3
      vertex 11.5757 0 2.7
      vertex 5.27574 6.3 2.7
    endloop
  endfacet
  facet normal 0.707048 0.707165 -9.08686e-06
    outer loop
      vertex 10.2612 1.31454 22.7781
      vertex 11.5757 0 2.7
      vertex 10.2178 1.35793 22.56
    endloop
  endfacet
  facet normal 0.707599 0.706614 6.30451e-05
    outer loop
      vertex 10.2757 1.3 23
      vertex 11.5757 0 2.7
      vertex 10.2612 1.31454 22.7781
    endloop
  endfacet
  facet normal 0.707107 0.707107 -0
    outer loop
      vertex 11.5757 0 2.7
      vertex 10.2757 1.3 23
      vertex 11.5757 0 46
    endloop
  endfacet
  facet normal 0 0 1
    outer loop
      vertex 49.7243 6.3 2.7
      vertex 11.5757 0 2.7
      vertex 43.4243 0 2.7
    endloop
  endfacet
  facet normal 0 -0 1
    outer loop
      vertex 11.5757 0 2.7
      vertex 49.7243 6.3 2.7
      vertex 5.27574 6.3 2.7
    endloop
  endfacet
  facet normal -0.707107 0.707107 0
    outer loop
      vertex 49.7243 6.3 2.7
      vertex 48.1243 4.7 23
      vertex 49.7243 6.3 46
    endloop
  endfacet
  facet normal -0.706445 0.707768 0.000104304
    outer loop
      vertex 49.7243 6.3 2.7
      vertex 48.1097 4.68546 22.7781
      vertex 48.1243 4.7 23
    endloop
  endfacet
  facet normal -0.707045 0.707169 7.8269e-06
    outer loop
      vertex 49.7243 6.3 2.7
      vertex 48.0663 4.64207 22.56
      vertex 48.1097 4.68546 22.7781
    endloop
  endfacet
  facet normal -0.707421 0.706792 -5.5049e-05
    outer loop
      vertex 49.7243 6.3 2.7
      vertex 47.9949 4.57059 22.3494
      vertex 48.0663 4.64207 22.56
    endloop
  endfacet
  facet normal -0.706955 0.707259 2.71481e-05
    outer loop
      vertex 49.7243 6.3 2.7
      vertex 47.8965 4.47224 22.15
      vertex 47.9949 4.57059 22.3494
    endloop
  endfacet
  facet normal -0.707206 0.707007 -2.01396e-05
    outer loop
      vertex 49.7243 6.3 2.7
      vertex 47.773 4.3487 21.9651
      vertex 47.8965 4.47224 22.15
    endloop
  endfacet
  facet normal -0.706934 0.70728 3.50233e-05
    outer loop
      vertex 49.7243 6.3 2.7
      vertex 47.6263 4.20208 21.7979
      vertex 47.773 4.3487 21.9651
    endloop
  endfacet
  facet normal -0.707279 0.706934 -4.08519e-05
    outer loop
      vertex 49.7243 6.3 2.7
      vertex 47.4592 4.03489 21.6513
      vertex 47.6263 4.20208 21.7979
    endloop
  endfacet
  facet normal -0.707089 0.707124 4.57857e-06
    outer loop
      vertex 49.7243 6.3 2.7
      vertex 47.2743 3.85 21.5278
      vertex 47.4592 4.03489 21.6513
    endloop
  endfacet
  facet normal -0.707007 0.707207 2.60079e-05
    outer loop
      vertex 49.7243 6.3 2.7
      vertex 47.0748 3.65056 21.4294
      vertex 47.2743 3.85 21.5278
    endloop
  endfacet
  facet normal -0.707219 0.706995 -3.38947e-05
    outer loop
      vertex 49.7243 6.3 2.7
      vertex 46.8643 3.43999 21.3579
      vertex 47.0748 3.65056 21.4294
    endloop
  endfacet
  facet normal -0.707107 0.707107 3.67767e-07
    outer loop
      vertex 49.7243 6.3 2.7
      vertex 46.6462 3.22189 21.3145
      vertex 46.8643 3.43999 21.3579
    endloop
  endfacet
  facet normal -0.707091 0.707123 5.58898e-06
    outer loop
      vertex 49.7243 6.3 2.7
      vertex 46.4243 3 21.3
      vertex 46.6462 3.22189 21.3145
    endloop
  endfacet
  facet normal -0.707107 0.707107 4.28767e-17
    outer loop
      vertex 43.4243 0 2.7
      vertex 46.4243 3 21.3
      vertex 49.7243 6.3 2.7
    endloop
  endfacet
  facet normal -0.707091 0.707123 -5.08619e-06
    outer loop
      vertex 46.4243 3 21.3
      vertex 43.4243 0 2.7
      vertex 46.2024 2.77811 21.3145
    endloop
  endfacet
  facet normal -0.707107 0.707107 -3.68913e-07
    outer loop
      vertex 46.2024 2.77811 21.3145
      vertex 43.4243 0 2.7
      vertex 45.9843 2.56001 21.3579
    endloop
  endfacet
  facet normal -0.707059 0.707155 -1.35684e-05
    outer loop
      vertex 45.9843 2.56001 21.3579
      vertex 43.4243 0 2.7
      vertex 45.7737 2.34944 21.4294
    endloop
  endfacet
  facet normal -0.707174 0.70704 1.53324e-05
    outer loop
      vertex 45.7737 2.34944 21.4294
      vertex 43.4243 0 2.7
      vertex 45.5743 2.15 21.5278
    endloop
  endfacet
  facet normal -0.707089 0.707125 -4.05766e-06
    outer loop
      vertex 45.5743 2.15 21.5278
      vertex 43.4243 0 2.7
      vertex 45.3894 1.96511 21.6513
    endloop
  endfacet
  facet normal -0.707088 0.707126 -4.36193e-06
    outer loop
      vertex 45.3894 1.96511 21.6513
      vertex 43.4243 0 2.7
      vertex 45.2222 1.79792 21.7979
    endloop
  endfacet
  facet normal -0.707151 0.707063 7.53185e-06
    outer loop
      vertex 45.2222 1.79792 21.7979
      vertex 43.4243 0 2.7
      vertex 45.0756 1.6513 21.9651
    endloop
  endfacet
  facet normal -0.706955 0.707259 -2.60838e-05
    outer loop
      vertex 45.0756 1.6513 21.9651
      vertex 43.4243 0 2.7
      vertex 44.952 1.52776 22.15
    endloop
  endfacet
  facet normal -0.707264 0.70695 2.24811e-05
    outer loop
      vertex 44.952 1.52776 22.15
      vertex 43.4243 0 2.7
      vertex 44.8537 1.42941 22.3494
    endloop
  endfacet
  facet normal -0.707599 0.706614 6.30451e-05
    outer loop
      vertex 44.7388 1.31454 22.7781
      vertex 43.4243 0 2.7
      vertex 44.7243 1.3 23
    endloop
  endfacet
  facet normal -0.707048 0.707165 -9.08686e-06
    outer loop
      vertex 44.7822 1.35793 22.56
      vertex 43.4243 0 2.7
      vertex 44.7388 1.31454 22.7781
    endloop
  endfacet
  facet normal -0.707026 0.707188 -1.21472e-05
    outer loop
      vertex 44.8537 1.42941 22.3494
      vertex 43.4243 0 2.7
      vertex 44.7822 1.35793 22.56
    endloop
  endfacet
  facet normal -0.706399 0.707813 -9.83586e-05
    outer loop
      vertex 48.1097 4.68546 23.2219
      vertex 49.7243 6.3 46
      vertex 48.1243 4.7 23
    endloop
  endfacet
  facet normal -0.707043 0.70717 -7.14284e-06
    outer loop
      vertex 48.0663 4.64207 23.44
      vertex 49.7243 6.3 46
      vertex 48.1097 4.68546 23.2219
    endloop
  endfacet
  facet normal -0.707429 0.706784 4.96339e-05
    outer loop
      vertex 47.9949 4.57059 23.6506
      vertex 49.7243 6.3 46
      vertex 48.0663 4.64207 23.44
    endloop
  endfacet
  facet normal -0.706952 0.707262 -2.4313e-05
    outer loop
      vertex 47.8965 4.47224 23.85
      vertex 49.7243 6.3 46
      vertex 47.9949 4.57059 23.6506
    endloop
  endfacet
  facet normal -0.707208 0.707006 1.79546e-05
    outer loop
      vertex 47.773 4.3487 24.0349
      vertex 49.7243 6.3 46
      vertex 47.8965 4.47224 23.85
    endloop
  endfacet
  facet normal -0.707085 0.707129 -3.9393e-06
    outer loop
      vertex 47.6282 4.20391 24.2
      vertex 49.7243 6.3 46
      vertex 47.773 4.3487 24.0349
    endloop
  endfacet
  facet normal -0.70711 0.707104 -8.08272e-07
    outer loop
      vertex 43.4243 0 46
      vertex 47.6282 4.20391 24.2
      vertex 45.2204 1.79609 24.2
    endloop
  endfacet
  facet normal -0.707084 0.707129 3.38147e-06
    outer loop
      vertex 43.4243 0 46
      vertex 45.2204 1.79609 24.2
      vertex 45.0756 1.6513 24.0349
    endloop
  endfacet
  facet normal -0.706952 0.707261 2.32017e-05
    outer loop
      vertex 43.4243 0 46
      vertex 45.0756 1.6513 24.0349
      vertex 44.952 1.52776 23.85
    endloop
  endfacet
  facet normal -0.707266 0.706947 -2.0077e-05
    outer loop
      vertex 43.4243 0 46
      vertex 44.952 1.52776 23.85
      vertex 44.8537 1.42941 23.6506
    endloop
  endfacet
  facet normal -0.707024 0.70719 1.09124e-05
    outer loop
      vertex 43.4243 0 46
      vertex 44.8537 1.42941 23.6506
      vertex 44.7822 1.35793 23.44
    endloop
  endfacet
  facet normal -0.707107 0.707107 3.24361e-07
    outer loop
      vertex 47.6282 4.20391 24.2
      vertex 43.4243 0 46
      vertex 49.7243 6.3 46
    endloop
  endfacet
  facet normal -0.707046 0.707168 8.25192e-06
    outer loop
      vertex 44.7388 1.31454 23.2219
      vertex 43.4243 0 46
      vertex 44.7822 1.35793 23.44
    endloop
  endfacet
  facet normal -0.707629 0.706584 -5.90742e-05
    outer loop
      vertex 44.7243 1.3 23
      vertex 43.4243 0 46
      vertex 44.7388 1.31454 23.2219
    endloop
  endfacet
  facet normal -0.707107 0.707107 0
    outer loop
      vertex 43.4243 0 46
      vertex 44.7243 1.3 23
      vertex 43.4243 0 2.7
    endloop
  endfacet
endsolid OpenSCAD_Model
